<?xml version="1.0" encoding="UTF-8" standalone="no"?>
<!-- Created with Inkscape (http://www.inkscape.org/) -->

<svg
   width="210mm"
   height="297mm"
   viewBox="0 0 210 297"
   version="1.1"
   id="svg5"
   inkscape:version="1.2.1 (9c6d41e410, 2022-07-14)"
   sodipodi:docname="choinka.svg"
   xmlns:inkscape="http://www.inkscape.org/namespaces/inkscape"
   xmlns:sodipodi="http://sodipodi.sourceforge.net/DTD/sodipodi-0.dtd"
   xmlns:xlink="http://www.w3.org/1999/xlink"
   xmlns="http://www.w3.org/2000/svg"
   xmlns:svg="http://www.w3.org/2000/svg">
  <sodipodi:namedview
     id="namedview7"
     pagecolor="#ffffff"
     bordercolor="#666666"
     borderopacity="1.0"
     inkscape:showpageshadow="2"
     inkscape:pageopacity="0.0"
     inkscape:pagecheckerboard="0"
     inkscape:deskcolor="#d1d1d1"
     inkscape:document-units="mm"
     showgrid="false"
     inkscape:zoom="0.914906"
     inkscape:cx="309.32139"
     inkscape:cy="561.80635"
     inkscape:window-width="2560"
     inkscape:window-height="1417"
     inkscape:window-x="-8"
     inkscape:window-y="-8"
     inkscape:window-maximized="1"
     inkscape:current-layer="layer1" />
  <defs
     id="defs2">
    <linearGradient
       inkscape:collect="always"
       id="linearGradient8135">
      <stop
         style="stop-color:#ff8900;stop-opacity:1;"
         offset="0.5714286"
         id="stop8131" />
      <stop
         style="stop-color:#ff8900;stop-opacity:0;"
         offset="1"
         id="stop8133" />
    </linearGradient>
    <linearGradient
       inkscape:collect="always"
       id="linearGradient8127">
      <stop
         style="stop-color:#ff8900;stop-opacity:1;"
         offset="0.58333331"
         id="stop8123" />
      <stop
         style="stop-color:#ff8900;stop-opacity:0;"
         offset="1"
         id="stop8125" />
    </linearGradient>
    <linearGradient
       inkscape:collect="always"
       id="linearGradient8119">
      <stop
         style="stop-color:#ff8900;stop-opacity:1;"
         offset="0.53869045"
         id="stop8115" />
      <stop
         style="stop-color:#ff8900;stop-opacity:0;"
         offset="1"
         id="stop8117" />
    </linearGradient>
    <linearGradient
       inkscape:collect="always"
       id="linearGradient8101">
      <stop
         style="stop-color:#ff8900;stop-opacity:1;"
         offset="0.58928573"
         id="stop8097" />
      <stop
         style="stop-color:#ff8900;stop-opacity:0;"
         offset="1"
         id="stop8099" />
    </linearGradient>
    <linearGradient
       inkscape:collect="always"
       xlink:href="#linearGradient8101"
       id="linearGradient8107"
       x1="83.287857"
       y1="107.69467"
       x2="128.81947"
       y2="107.69467"
       gradientUnits="userSpaceOnUse" />
    <linearGradient
       inkscape:collect="always"
       xlink:href="#linearGradient8119"
       id="linearGradient8121"
       x1="84.598742"
       y1="135.26782"
       x2="130.76291"
       y2="135.26782"
       gradientUnits="userSpaceOnUse" />
    <linearGradient
       inkscape:collect="always"
       xlink:href="#linearGradient8127"
       id="linearGradient8129"
       x1="81.031468"
       y1="176.38182"
       x2="144.92527"
       y2="176.38182"
       gradientUnits="userSpaceOnUse" />
    <linearGradient
       inkscape:collect="always"
       xlink:href="#linearGradient8135"
       id="linearGradient8137"
       x1="68.37581"
       y1="215.19561"
       x2="177.55346"
       y2="215.19561"
       gradientUnits="userSpaceOnUse" />
  </defs>
  <g
     inkscape:label="Warstwa 1"
     inkscape:groupmode="layer"
     id="layer1">
    <path
       style="fill:#974600;fill-opacity:1;fill-rule:evenodd;stroke:none;stroke-width:0.289647;stroke-dasharray:none"
       d="m 106.70937,280.69778 c -0.63755,-0.29284 -1.3367,-0.74633 -1.55367,-1.00777 -0.35436,-0.42696 -1.61295,-0.47532 -12.372499,-0.47532 h -11.978 l 0.0547,-3.12023 c 0.039,-2.22584 -0.0612,-3.3242 -0.34954,-3.8318 -0.32076,-0.5646 -0.39833,-2.32405 -0.37561,-8.51972 0.0295,-8.03424 0.14488,-9.55895 1.24787,-16.48394 1.00586,-6.31513 1.76157,-9.89418 2.70249,-12.799 l 0.86722,-2.67728 17.240189,0.0746 17.24018,0.0746 0.19798,1.59055 c 0.2771,2.22626 1.21052,12.3676 1.25102,13.59202 0.0184,0.55669 0.11861,1.46764 0.22267,2.02434 0.10406,0.55669 0.27593,2.76901 0.38193,4.91626 0.30243,6.12624 0.3679,6.89409 0.68524,8.03672 0.1652,0.59478 0.29868,4.08874 0.29957,7.84135 0.001,6.65324 -0.008,6.75997 -0.55292,6.26668 -0.90316,-0.81735 -1.8662,-0.48993 -2.06305,0.70141 -0.18184,1.10054 -0.67544,2.16969 -1.36849,2.96421 -0.34488,0.39539 -0.92187,0.50985 -2.63786,0.52332 -1.20802,0.01 -2.84709,0.1442 -3.64237,0.29937 -2.89604,0.56505 -4.28269,0.56748 -5.49706,0.01 z"
       id="path8214" />
    <path
       sodipodi:type="star"
       style="fill:#00bc00;fill-opacity:1;fill-rule:evenodd;stroke:#000000;stroke-width:0.264583px;stroke-linecap:butt;stroke-linejoin:miter;stroke-opacity:1"
       id="path1337"
       inkscape:flatsided="true"
       sodipodi:sides="3"
       sodipodi:cx="80.973709"
       sodipodi:cy="116.83349"
       sodipodi:r1="44.048382"
       sodipodi:r2="45.514416"
       sodipodi:arg1="0.52240341"
       sodipodi:arg2="1.5696009"
       inkscape:rounded="0"
       inkscape:randomized="0"
       d="m 119.14703,138.81206 -76.293984,0.0912 38.068009,-66.118122 z"
       transform="matrix(2.0611329,0,0,1.1679206,-62.382836,75.212831)" />
    <path
       sodipodi:type="star"
       style="fill:#00bc00;fill-opacity:1;fill-rule:evenodd;stroke:#000000;stroke-width:0.264583px;stroke-linecap:butt;stroke-linejoin:miter;stroke-opacity:1"
       id="path1334"
       inkscape:flatsided="true"
       sodipodi:sides="3"
       sodipodi:cx="80.973709"
       sodipodi:cy="116.83349"
       sodipodi:r1="44.048382"
       sodipodi:r2="45.514416"
       sodipodi:arg1="0.52240341"
       sodipodi:arg2="1.5696009"
       inkscape:rounded="0"
       inkscape:randomized="0"
       d="m 119.14703,138.81206 -76.293984,0.0912 38.068009,-66.118122 z"
       transform="matrix(1.6381372,0,0,1.1690047,-27.83091,32.586964)" />
    <path
       sodipodi:type="star"
       style="fill:#00bc00;fill-opacity:1;fill-rule:evenodd;stroke:#000000;stroke-width:0.264583px;stroke-linecap:butt;stroke-linejoin:miter;stroke-opacity:1"
       id="path1331"
       inkscape:flatsided="true"
       sodipodi:sides="3"
       sodipodi:cx="80.973709"
       sodipodi:cy="116.83349"
       sodipodi:r1="44.048382"
       sodipodi:r2="45.514416"
       sodipodi:arg1="0.52240341"
       sodipodi:arg2="1.5696009"
       inkscape:rounded="0"
       inkscape:randomized="0"
       d="m 119.14703,138.81206 -76.293984,0.0912 38.068009,-66.118122 z"
       transform="matrix(1.2231561,0,0,0.89996895,5.7826478,23.739334)" />
    <path
       sodipodi:type="star"
       style="fill:#00bc00;fill-opacity:1;fill-rule:evenodd;stroke:#000000;stroke-width:0.264583px;stroke-linecap:butt;stroke-linejoin:miter;stroke-opacity:1"
       id="path1220"
       inkscape:flatsided="true"
       sodipodi:sides="3"
       sodipodi:cx="80.973709"
       sodipodi:cy="116.83349"
       sodipodi:r1="44.048382"
       sodipodi:r2="45.514416"
       sodipodi:arg1="0.52240341"
       sodipodi:arg2="1.5696009"
       inkscape:rounded="0"
       inkscape:randomized="0"
       d="m 119.14703,138.81206 -76.293984,0.0912 38.068009,-66.118122 z"
       transform="matrix(1.0010917,0,0,0.64681965,24.203688,23.622168)" />
    <path
       sodipodi:type="star"
       style="fill:#ffff00;fill-opacity:1;fill-rule:evenodd;stroke:#000000;stroke-width:0.264583"
       id="path176"
       inkscape:flatsided="false"
       sodipodi:sides="6"
       sodipodi:cx="105.26582"
       sodipodi:cy="58.70594"
       sodipodi:r1="40.777069"
       sodipodi:r2="17.856277"
       sodipodi:arg1="1.5539912"
       sodipodi:arg2="2.07759"
       inkscape:rounded="0.12540038"
       inkscape:randomized="0"
       d="M 105.95105,99.477252 C 102.5856,99.533814 99.541656,75.95152 96.598807,74.317778 93.655958,72.684036 72.031159,82.571311 70.299448,79.685024 68.567737,76.798737 87.468629,62.371456 87.412067,59.006003 87.355505,55.64055 67.980474,41.856562 69.614216,38.913713 c 1.633743,-2.94285 23.578581,6.212163 26.464868,4.480452 2.886286,-1.731711 5.136056,-25.402974 8.501506,-25.459536 3.36546,-0.05656 6.4094,23.525731 9.35225,25.159474 2.94285,1.633742 24.56765,-8.253533 26.29936,-5.367246 1.73171,2.886287 -17.16918,17.313568 -17.11262,20.679021 0.0566,3.365453 19.43159,17.149441 17.79785,20.09229 -1.63374,2.942849 -23.57858,-6.212164 -26.46487,-4.480453 -2.88628,1.731711 -5.13605,25.402974 -8.50151,25.459537 z"
       inkscape:transform-center-x="-0.54825593"
       inkscape:transform-center-y="-8.4491254" />
    <path
       style="fill:#febc00;fill-opacity:1;fill-rule:evenodd;stroke:#000000;stroke-width:0.264583"
       id="path1392"
       sodipodi:type="arc"
       sodipodi:cx="123.19572"
       sodipodi:cy="130.28091"
       sodipodi:rx="4.627069"
       sodipodi:ry="4.1932812"
       sodipodi:start="0"
       sodipodi:end="6.245276"
       sodipodi:open="true"
       sodipodi:arc-type="arc"
       d="m 127.82279,130.28091 a 4.627069,4.1932812 0 0 1 -4.58322,4.1931 4.627069,4.1932812 0 0 1 -4.67009,-4.11362 4.627069,4.1932812 0 0 1 4.4947,-4.27106 4.627069,4.1932812 0 0 1 4.75528,4.03266" />
    <path
       style="fill:#fe0000;fill-opacity:1;fill-rule:evenodd;stroke:#000000;stroke-width:0.264583"
       id="path1602"
       sodipodi:type="arc"
       sodipodi:cx="88.926483"
       sodipodi:cy="142.42696"
       sodipodi:rx="5.0608568"
       sodipodi:ry="4.7716651"
       sodipodi:start="0"
       sodipodi:end="6.245276"
       sodipodi:open="true"
       sodipodi:arc-type="arc"
       d="m 93.98734,142.42696 a 5.0608568,4.7716651 0 0 1 -5.012894,4.77145 5.0608568,4.7716651 0 0 1 -5.107911,-4.68101 5.0608568,4.7716651 0 0 1 4.916077,-4.86018 5.0608568,4.7716651 0 0 1 5.201092,4.58889" />
    <path
       style="fill:#fe0000;fill-opacity:1;fill-rule:evenodd;stroke:#000000;stroke-width:0.264583"
       id="path1968"
       sodipodi:type="arc"
       sodipodi:cx="121.60516"
       sodipodi:cy="169.03262"
       sodipodi:rx="5.350049"
       sodipodi:ry="4.4824734"
       sodipodi:start="0"
       sodipodi:end="6.245276"
       sodipodi:open="true"
       sodipodi:arc-type="arc"
       d="m 126.95521,169.03262 a 5.350049,4.4824734 0 0 1 -5.29934,4.48228 5.350049,4.4824734 0 0 1 -5.39979,-4.39732 5.350049,4.4824734 0 0 1 5.19699,-4.56562 5.350049,4.4824734 0 0 1 5.4983,4.31078" />
    <path
       style="fill:#fe0000;fill-opacity:1;fill-rule:evenodd;stroke:#000000;stroke-width:0.264583"
       id="path1970"
       sodipodi:type="arc"
       sodipodi:cx="67.815483"
       sodipodi:cy="213.71275"
       sodipodi:rx="4.4824734"
       sodipodi:ry="5.2054529"
       sodipodi:start="0"
       sodipodi:end="6.245276"
       sodipodi:open="true"
       sodipodi:arc-type="arc"
       d="m 72.297956,213.71275 a 4.4824734,5.2054529 0 0 1 -4.439992,5.20522 4.4824734,5.2054529 0 0 1 -4.524149,-5.10656 4.4824734,5.2054529 0 0 1 4.35424,-5.30201 4.4824734,5.2054529 0 0 1 4.606681,5.00607" />
    <path
       style="fill:#ff8900;fill-opacity:1;fill-rule:evenodd;stroke:#000000;stroke-width:0.264583"
       id="path1972"
       sodipodi:type="arc"
       sodipodi:cx="139.82425"
       sodipodi:cy="211.83301"
       sodipodi:rx="6.2176242"
       sodipodi:ry="5.6392407"
       sodipodi:start="0"
       sodipodi:end="6.245276"
       sodipodi:open="true"
       sodipodi:arc-type="arc"
       d="m 146.04187,211.83301 a 6.2176242,5.6392407 0 0 1 -6.1587,5.63899 6.2176242,5.6392407 0 0 1 -6.27543,-5.53211 6.2176242,5.6392407 0 0 1 6.03975,-5.74384 6.2176242,5.6392407 0 0 1 6.38992,5.42323" />
    <path
       style="fill:#fe00a8;fill-opacity:1;fill-rule:evenodd;stroke:#000000;stroke-width:0.264583"
       id="path1974"
       sodipodi:type="arc"
       sodipodi:cx="94.421127"
       sodipodi:cy="178.43135"
       sodipodi:rx="5.350049"
       sodipodi:ry="5.7838364"
       sodipodi:start="0"
       sodipodi:end="6.245276"
       sodipodi:open="true"
       sodipodi:arc-type="arc"
       d="m 99.771176,178.43135 a 5.350049,5.7838364 0 0 1 -5.299345,5.78358 5.350049,5.7838364 0 0 1 -5.399792,-5.67396 5.350049,5.7838364 0 0 1 5.196996,-5.89112 5.350049,5.7838364 0 0 1 5.498297,5.56229" />
    <path
       style="fill:#ff8900;fill-opacity:1;fill-rule:evenodd;stroke:#000000;stroke-width:0.264583"
       id="path5304"
       sodipodi:type="arc"
       sodipodi:cx="121.31597"
       sodipodi:cy="225.42503"
       sodipodi:rx="4.1932812"
       sodipodi:ry="4.4824734"
       sodipodi:start="0"
       sodipodi:end="6.245276"
       sodipodi:open="true"
       sodipodi:arc-type="arc"
       d="m 125.50925,225.42503 a 4.1932812,4.4824734 0 0 1 -4.15354,4.48228 4.1932812,4.4824734 0 0 1 -4.23227,-4.39732 4.1932812,4.4824734 0 0 1 4.07332,-4.56562 4.1932812,4.4824734 0 0 1 4.30948,4.31078" />
    <path
       style="fill:#ff8900;fill-opacity:1;fill-rule:evenodd;stroke:#000000;stroke-width:0.264583"
       id="path5306"
       sodipodi:type="arc"
       sodipodi:cx="84.010223"
       sodipodi:cy="159.48929"
       sodipodi:rx="5.0608568"
       sodipodi:ry="5.350049"
       sodipodi:start="0"
       sodipodi:end="6.245276"
       sodipodi:open="true"
       sodipodi:arc-type="arc"
       d="m 89.07108,159.48929 a 5.0608568,5.350049 0 0 1 -5.012894,5.34981 5.0608568,5.350049 0 0 1 -5.10791,-5.24841 5.0608568,5.350049 0 0 1 4.916077,-5.44929 5.0608568,5.350049 0 0 1 5.201091,5.14512" />
    <path
       style="fill:url(#linearGradient8107);fill-opacity:1;fill-rule:evenodd;stroke:none;stroke-width:0.265;stroke-dasharray:none"
       id="path6087"
       d="m 83.544348,97.324843 c 2.743189,1.513062 5.353592,3.248677 8.007466,4.909807 3.070694,1.89134 6.340909,3.43004 9.573576,5.01945 2.83725,1.36359 5.65438,2.76483 8.40681,4.29322 1.78495,0.9156 3.48567,1.97613 5.21776,2.98388 1.69033,1.06499 3.45384,2.00664 5.21282,2.95177 1.49665,0.7462 2.97064,1.53573 4.46599,2.28411 0.2642,0.12237 0.50393,0.28534 0.74984,0.43866 0,0 3.2895,-2.19778 3.2895,-2.19778 v 0 c -0.29396,-0.0489 -0.48815,-0.31389 -0.7796,-0.38789 -1.50672,-0.73504 -2.99718,-1.50164 -4.49904,-2.24715 -1.75493,-0.93731 -3.50714,-1.8878 -5.18875,-2.95233 -1.74573,-1.00468 -3.45584,-2.06896 -5.2644,-2.9627 -2.77032,-1.52211 -5.60184,-2.9235 -8.45494,-4.28333 -3.22376,-1.58524 -6.484452,-3.12031 -9.560685,-4.98173 -2.642976,-1.655092 -5.243942,-3.374529 -7.899236,-5.010014 0,0 -3.277111,2.142027 -3.277111,2.142027 z" />
    <path
       style="fill:url(#linearGradient8121);fill-opacity:1;fill-rule:evenodd;stroke:none;stroke-width:0.264999;stroke-dasharray:none"
       id="path8109"
       d="m 84.598742,115.97181 c 0.537792,1.99776 1.074946,3.99379 1.653844,5.98024 0.54633,1.76429 1.463424,3.32856 2.465287,4.86273 1.071962,1.61919 2.629114,2.75929 4.214924,3.82978 1.981848,1.26065 4.140498,2.19227 6.318273,3.05264 2.49966,0.8676 4.97017,1.79723 7.25643,3.13887 0.87164,0.54904 1.6897,1.17662 2.47561,1.84116 0.40131,0.33934 0.78057,0.65011 1.09659,1.07368 0.14838,0.19888 0.26071,0.42227 0.39107,0.6334 0.79065,1.33339 1.10026,2.84696 1.40973,4.3453 0.25183,1.14557 0.45034,2.29195 0.82917,3.40396 0.60267,1.60202 1.44475,3.10949 2.24879,4.61841 0.76572,1.28469 1.74707,2.0581 3.10212,2.62948 0.98276,0.37063 2.0156,0.58541 3.03534,0.82944 0.65971,0.15796 1.33319,0.23102 2.01051,0.21727 0.46241,-0.0406 0.94415,-0.11367 1.35204,-0.35338 3.67066,-2.15721 2.66632,-1.20079 3.95616,-2.49006 0.55641,-0.60503 1.01868,-1.27828 1.48166,-1.95559 0.34596,-0.52435 0.48655,-1.14778 0.7635,-1.70191 0.0344,-0.0801 0.0688,-0.16012 0.10312,-0.24018 0,0 -3.58145,1.64452 -3.58145,1.64452 v 0 c -0.0343,0.079 -0.0687,0.15793 -0.10298,0.23689 -0.21865,0.56345 -0.43985,1.1316 -0.78561,1.63224 -0.45337,0.66271 -0.9292,1.31303 -1.51039,1.87144 -1.20563,1.0242 -0.36524,0.27682 2.73943,-1.4603 0.10224,-0.0572 -0.19626,0.12847 -0.29914,0.18452 -0.20228,0.1102 -0.39768,0.19202 -0.62249,0.24438 -0.10853,0.0253 -0.22022,0.0343 -0.33033,0.0514 -0.64872,0.0906 -1.30624,-0.002 -1.94773,-0.1169 -1.01374,-0.21827 -2.03397,-0.43733 -3.01657,-0.76885 -1.30284,-0.48511 -2.24704,-1.17308 -2.99082,-2.37862 -0.80458,-1.48476 -1.61752,-2.98547 -2.18007,-4.58105 -0.36072,-1.09919 -0.56523,-2.23057 -0.82405,-3.35684 -0.33854,-1.5349 -0.66254,-3.09042 -1.4802,-4.4571 -0.14127,-0.23213 -0.26226,-0.47789 -0.42382,-0.6964 -0.33961,-0.45934 -0.70937,-0.75021 -1.14653,-1.11353 -0.80736,-0.67099 -1.6413,-1.31206 -2.52775,-1.87615 -0.34158,-0.20384 -0.67589,-0.4204 -1.02474,-0.61152 -1.98982,-1.09011 -4.17253,-1.7614 -6.28356,-2.56597 -2.15024,-0.84706 -4.269145,-1.78891 -6.240336,-3.00487 -1.547667,-1.0322 -3.071937,-2.13764 -4.122629,-3.70499 -0.984633,-1.49894 -1.877491,-3.03521 -2.416429,-4.7598 -0.589026,-1.98375 -1.16178,-3.97202 -1.608396,-5.99371 0,0 -3.437578,1.86593 -3.437578,1.86593 z" />
    <path
       style="fill:url(#linearGradient8129);fill-opacity:1;fill-rule:evenodd;stroke:none;stroke-width:0.264999;stroke-dasharray:none"
       id="path8111"
       d="m 81.031468,151.93962 c 2.884392,0.85249 5.757153,1.76372 8.551659,2.88161 0.77562,0.31028 1.537123,0.65473 2.305685,0.9821 3.741496,1.58499 7.065986,3.93018 9.780458,6.95824 0.58674,0.65452 1.11452,1.3596 1.67179,2.0394 3.16473,4.26784 5.11183,9.21512 6.92632,14.1619 1.18541,3.1997 2.45257,6.42223 4.20867,9.36193 0.31221,0.52265 0.66372,1.02081 0.99558,1.53121 1.51933,2.2413 3.48366,4.12165 5.76043,5.5824 0.43798,0.281 0.89604,0.52941 1.34406,0.79411 3.11734,1.65575 6.39911,2.97057 9.64347,4.35122 2.34432,0.88177 4.66115,1.88627 7.12843,2.37052 0.23196,0.0217 0.46292,0.0627 0.69589,0.0651 1.73708,0.0182 3.89322,-1.81399 4.88136,-2.38399 0,0 -3.65424,1.41568 -3.65424,1.41568 v 0 c 0.98818,-0.55882 1.97654,-1.11735 2.96456,-1.67646 0.14978,-0.0848 -0.28817,0.19443 -0.44985,0.2534 -0.48437,0.17667 -0.74858,0.11654 -1.26258,0.10268 -2.4837,-0.38459 -4.80441,-1.39177 -7.15232,-2.24873 -3.2321,-1.36586 -6.50736,-2.65732 -9.60306,-4.3181 -2.83199,-1.66418 -5.18106,-3.43682 -7.03743,-6.21341 -0.32937,-0.50109 -0.67774,-0.99018 -0.98811,-1.50326 -1.76341,-2.91517 -3.02303,-6.11526 -4.21702,-9.2931 -1.87055,-4.96546 -3.88665,-9.92007 -7.02249,-14.24633 -0.55888,-0.69203 -1.08709,-1.41 -1.67664,-2.0761 -2.72504,-3.07886 -6.07277,-5.4792 -9.857796,-7.08008 -3.498262,-1.51714 -7.06742,-2.84916 -10.701041,-4.00741 0,0 -3.235785,2.19545 -3.235785,2.19545 z" />
    <path
       style="fill:url(#linearGradient8137);fill-opacity:1;fill-rule:evenodd;stroke:none;stroke-width:0.264999;stroke-dasharray:none"
       id="path8113"
       d="m 68.37581,195.39165 c 1.936162,1.45088 4.250436,2.20705 6.510035,2.98598 2.025748,0.69831 4.420394,1.47938 6.445864,2.14692 4.358836,1.42006 8.735272,2.79712 12.98017,4.53763 2.15755,0.88464 2.770336,1.19874 4.829831,2.15983 2.50537,1.26613 4.9158,2.71766 7.16101,4.40505 1.43988,1.08214 1.97266,1.57207 3.35107,2.74506 2.75877,2.24742 5.27226,4.8082 8.17725,6.87551 0.52706,0.37509 1.07958,0.71306 1.61937,1.06959 3.72192,2.22899 7.55221,2.80268 11.78714,3.14778 3.08519,0.094 6.17375,0.39636 9.18314,1.10575 0.58496,0.13788 1.16076,0.31206 1.74113,0.4681 3.04527,0.85044 5.93352,2.1351 8.70232,3.64533 2.08574,1.26082 4.14304,2.54998 6.32656,3.63805 2.20974,1.14776 4.58179,1.85992 7.0192,2.3111 1.77889,0.33229 3.5771,0.4159 5.38085,0.35855 1.14802,-0.0429 2.29414,-0.14488 3.44201,-0.0629 0.43918,0.0347 0.87639,0.0779 1.31304,0.13583 0,0 3.20766,-2.25627 3.20766,-2.25627 v 0 c -0.44187,-0.0774 -0.88276,-0.12437 -1.33031,-0.15793 -1.16548,-0.10717 -2.32693,-0.0259 -3.4938,0.0422 -1.79528,0.0829 -3.58584,0.0575 -5.36111,-0.26904 -2.4199,-0.42602 -4.79651,-1.04814 -6.98565,-2.20283 -2.18127,-1.08086 -4.22084,-2.38848 -6.30883,-3.63416 -2.811,-1.5025 -5.72754,-2.80853 -8.80021,-3.68492 -0.58647,-0.16115 -1.16826,-0.34048 -1.75942,-0.48344 -3.01588,-0.72936 -6.11706,-1.0771 -9.21571,-1.14187 -4.16381,-0.29583 -8.01658,-0.80787 -11.681,-2.99066 -0.53614,-0.34856 -1.08484,-0.67851 -1.6084,-1.04568 -2.91609,-2.04504 -5.44691,-4.58177 -8.18733,-6.84357 -1.22429,-1.05147 -2.06821,-1.80834 -3.35029,-2.78359 -2.25954,-1.71878 -4.70993,-3.16346 -7.2452,-4.4343 -2.12104,-0.96904 -2.672894,-1.24904 -4.895243,-2.14333 -4.268475,-1.71767 -8.662794,-3.07952 -13.026577,-4.52797 -2.078199,-0.69892 -4.309438,-1.43573 -6.376057,-2.18178 -2.16455,-0.78141 -4.390892,-1.55882 -6.22183,-2.99925 0,0 -3.330683,2.06522 -3.330683,2.06522 z" />
  </g>
</svg>
