<?xml version="1.0" encoding="UTF-8" standalone="no"?>
<!-- Created with Inkscape (http://www.inkscape.org/) -->

<svg
   width="190mm"
   height="150mm"
   viewBox="0 0 190 150"
   version="1.1"
   id="svg1843"
   sodipodi:docname="ślimak.svg"
   inkscape:version="1.2.1 (9c6d41e410, 2022-07-14)"
   xmlns:inkscape="http://www.inkscape.org/namespaces/inkscape"
   xmlns:sodipodi="http://sodipodi.sourceforge.net/DTD/sodipodi-0.dtd"
   xmlns="http://www.w3.org/2000/svg"
   xmlns:svg="http://www.w3.org/2000/svg">
  <sodipodi:namedview
     id="namedview1845"
     pagecolor="#ffffff"
     bordercolor="#666666"
     borderopacity="1.0"
     inkscape:showpageshadow="2"
     inkscape:pageopacity="0.0"
     inkscape:pagecheckerboard="0"
     inkscape:deskcolor="#d1d1d1"
     inkscape:document-units="mm"
     showgrid="false"
     inkscape:zoom="0.914906"
     inkscape:cx="419.16874"
     inkscape:cy="562.35285"
     inkscape:window-width="1637"
     inkscape:window-height="1408"
     inkscape:window-x="914"
     inkscape:window-y="0"
     inkscape:window-maximized="0"
     inkscape:current-layer="layer1" />
  <defs
     id="defs1840" />
  <g
     inkscape:label="Warstwa 1"
     inkscape:groupmode="layer"
     id="layer1">
    <path
       sodipodi:type="spiral"
       style="fill:none;fill-rule:evenodd;stroke:#000000;stroke-width:0.264583px;stroke-linecap:butt;stroke-linejoin:miter;stroke-opacity:1"
       id="path1900"
       sodipodi:cx="112.20643"
       sodipodi:cy="97.746834"
       sodipodi:expansion="1"
       sodipodi:revolution="3.5169756"
       sodipodi:radius="64.519402"
       sodipodi:argument="-21.030218"
       sodipodi:t0="0"
       d="m 112.20643,97.746834 c -1.58046,-2.261939 2.2693,-3.24639 3.75949,-2.626829 4.03831,1.678972 3.75911,7.183445 1.49417,10.145815 -4.05145,5.29898 -12.00648,4.59304 -16.53214,0.3615 -6.641576,-6.209961 -5.464624,-16.899607 0.77116,-22.918451 8.31133,-8.022173 21.81824,-6.353022 29.30477,1.903821 9.42105,10.390393 7.25027,26.74916 -3.03648,35.69109 -12.45863,10.82988 -31.687043,8.15267 -42.07741,-4.16914 -12.244688,-14.52084 -9.058315,-36.629276 5.301808,-48.463736 16.579332,-13.663352 41.574402,-9.966122 54.850052,6.43447 15.08464,18.635395 10.87544,46.521556 -7.56713,61.236376 -20.68978,16.50779 -51.470206,11.78585 -67.622695,-8.6998 C 52.9197,103.899 58.154937,70.22199 80.684482,52.632939 c 24.795228,-19.357893 61.370578,-13.60895 80.395328,10.96512 20.78427,26.846815 14.52131,66.321871 -12.09778,86.781651 -1.81623,1.39598 -3.70727,2.69454 -5.66205,3.8888"
       transform="matrix(-0.78080696,0,0,0.78080696,159.88274,-17.05843)" />
    <path
       style="fill:none;fill-rule:evenodd;stroke:#000000;stroke-width:0.264583px;stroke-linecap:butt;stroke-linejoin:miter;stroke-opacity:1"
       d="m 46.849075,103.24148 c 3.454752,-0.49354 0.872948,-0.002 2.891917,-0.57839 0.382164,-0.10918 0.784619,-0.14963 1.156769,-0.28919 0.403651,-0.15137 0.753113,-0.42701 1.156766,-0.57838 1.965825,-0.73718 0.374769,-0.0143 2.024343,-0.28919 0.300686,-0.0501 0.568661,-0.22941 0.867574,-0.28919 2.032199,-0.40644 -1.786392,0.88465 1.735151,-0.2892 0.204491,-0.0682 0.369271,-0.23691 0.578384,-0.28919 0.18704,-0.0468 0.385591,0 0.578385,0 0.578384,0 1.164637,0.0951 1.735151,0 0.212619,-0.0354 0.369268,-0.23691 0.578384,-0.28919 0.374076,-0.0935 0.78269,0.0935 1.156766,0 0.209116,-0.0523 0.378251,-0.20914 0.578385,-0.28919 0.1505,-0.67633 0.818417,-0.17641 1.156766,-0.28919 0.40898,-0.13633 0.738537,-0.47383 1.156766,-0.57839 0.187039,-0.0468 0.391348,0.0468 0.578385,0 0.418229,-0.10455 0.756499,-0.41827 1.156769,-0.57838 0.28303,-0.11321 0.59492,-0.15287 0.867574,-0.28919 0.121933,-0.061 0.156935,-0.25613 0.289192,-0.28919 0.280556,-0.0701 0.583999,0.0567 0.867574,0 0.211365,-0.0423 0.373896,-0.22103 0.578384,-0.2892 0.09145,-0.0305 0.202973,0.0431 0.289192,0 0.121934,-0.061 0.167259,-0.22822 0.289193,-0.28919 0.172439,-0.0862 0.405942,0.0862 0.578384,0 0.121933,-0.061 0.159861,-0.24608 0.28919,-0.28919 0.274352,-0.0915 0.578384,0 0.867576,0 0.771179,0 1.542357,0 2.313536,0 0.192794,0 0.39548,0.061 0.578381,0 0.129331,-0.0431 0.167259,-0.22822 0.289193,-0.28919 0.156884,-0.0784 1.077637,0.0791 1.156769,0 0.06816,-0.0682 -0.06816,-0.22103 0,-0.28919 0.06816,-0.0682 0.246081,0.0862 0.289189,0 0.337391,-0.67478 -0.36149,-0.57839 0.289192,-0.57839"
       id="path1902" />
    <path
       style="fill:none;fill-rule:evenodd;stroke:#000000;stroke-width:0.264583px;stroke-linecap:butt;stroke-linejoin:miter;stroke-opacity:1"
       d="m 107.86855,77.50341 c 0.28919,-0.38559 0.60021,-0.75573 0.86757,-1.15677 0.11957,-0.17935 0.16963,-0.39903 0.2892,-0.57839 0.22685,-0.34029 0.61208,-0.54821 0.86757,-0.86757 0.21712,-0.2714 0.39956,-0.56954 0.57838,-0.86758 0.0301,-0.0501 0.56801,-1.14639 0.57839,-1.15676 0.15241,-0.15242 0.42596,-0.13678 0.57838,-0.28919 0.15242,-0.15242 0.13677,-0.42597 0.28919,-0.57839 0.30484,-0.30483 0.91764,-0.21968 1.15677,-0.57838 0.10694,-0.16041 -0.10694,-0.41797 0,-0.57839 0.0209,-0.0314 1.04156,-0.50157 1.15677,-0.57838 0.11343,-0.0756 0.19279,-0.19279 0.28919,-0.28919 0.19279,-0.0964 0.39903,-0.16963 0.57838,-0.28919 0.11343,-0.0756 0.16726,-0.22823 0.28919,-0.28919 0.27266,-0.13633 0.61394,-0.1201 0.86758,-0.2892 0.0802,-0.0535 0,-0.19279 0,-0.28919 0.19279,-0.19279 0.33452,-0.45645 0.57838,-0.57838 0.17244,-0.0862 0.39135,0.0468 0.57839,0 0.41823,-0.10456 0.7565,-0.41828 1.15676,-0.57838 0.56607,-0.22643 1.17478,-0.33823 1.73516,-0.57839 0.39624,-0.16982 0.78246,-0.3645 1.15676,-0.57838 0.30177,-0.17244 0.53785,-0.46848 0.86758,-0.57838 0.27435,-0.0915 0.58232,0.0475 0.86757,0 0.53604,-0.0893 0.97396,-0.34239 1.44596,-0.57839 0.1928,-0.0964 0.3739,-0.22103 0.57839,-0.28919 0.37706,-0.12569 0.7797,-0.16351 1.15676,-0.28919 0.20449,-0.0682 0.3739,-0.22103 0.57839,-0.2892 0.27435,-0.0914 0.58701,0.0701 0.86757,0 0.20912,-0.0523 0.36927,-0.23691 0.57839,-0.28919 0.46759,-0.1169 0.97053,0.0792 1.44595,0 2.53858,-0.42309 -0.44205,-0.10638 1.44596,-0.57838 0.37408,-0.0935 0.77867,0.0756 1.15677,0 0.29892,-0.0598 0.57184,-0.21526 0.86758,-0.28919 0.0935,-0.0234 0.19279,0 0.28919,0 0.57838,0 1.15677,0 1.73515,0 0.19279,0 0.39135,0.0468 0.57838,0 0.20912,-0.0523 0.365,-0.25871 0.57839,-0.28919 0.47714,-0.0682 0.96397,0 1.44596,0 0.86757,0 1.73515,0 2.60272,0 0.77118,0 1.54236,0 2.31354,0 0.28919,0 0.58231,-0.0476 0.86757,0 0.30069,0.0501 0.56581,0.24608 0.86758,0.28919 0.38171,0.0545 0.77117,0 1.15677,0 0.28919,0 0.58951,-0.0795 0.86757,0 0.41451,0.11843 0.7871,0.35658 1.15677,0.57838 0.1169,0.0701 0.15693,0.25613 0.28919,0.28919 0.28056,0.0701 0.584,-0.0567 0.86757,0 0.21137,0.0423 0.3739,0.22103 0.57839,0.28919 0.37706,0.12569 0.79145,0.13263 1.15676,0.2892 0.31947,0.13691 0.54812,0.44147 0.86758,0.57838 0.36532,0.15657 0.77971,0.16351 1.15677,0.28919 2.01789,0.67263 0.83908,0.40092 2.60273,1.15677 0.45362,0.19441 1.03222,0.26809 1.44595,0.57838 0.21813,0.1636 0.36027,0.4148 0.57839,0.57839 0.17244,0.12933 0.42596,0.13677 0.57838,0.28919 0.34082,0.34082 0.52676,0.81595 0.86758,1.15677 0.24576,0.24576 0.62181,0.33261 0.86757,0.57838 0.15242,0.15242 0.1928,0.38559 0.28919,0.57838 0.2892,0.1928 0.62181,0.33262 0.86758,0.57839 0.24577,0.24576 0.36126,0.59617 0.57838,0.86757 0.17033,0.21291 0.43811,0.34459 0.57839,0.57839 0.15683,0.26139 0.13235,0.60618 0.28919,0.86757 0.14028,0.2338 0.41479,0.36026 0.57838,0.57838 0.12933,0.17245 0.17829,0.39356 0.28919,0.57839 -0.0597,0.59233 0.61257,0.77426 0.86758,1.15676 0.65539,0.98309 0.0388,0.1551 0.28919,1.15677 0.0523,0.20912 0.20914,0.37825 0.28919,0.57839 0.22643,0.56606 0.30573,1.18984 0.57839,1.73515 0.15543,0.31087 0.46847,0.53784 0.57838,0.86757 0.0914,0.27435 -0.0567,0.584 0,0.86758 0.0423,0.21136 0.1928,0.38559 0.28919,0.57838 0.0964,0.28919 0.23908,0.56689 0.28919,0.86758 0.0951,0.57051 -0.0951,1.16464 0,1.73515 0.0501,0.30069 0.22941,0.56866 0.2892,0.86757 0.0378,0.18906 0,0.38559 0,0.57839 0,0.38559 0,0.77118 0,1.15677 0,0.67478 0,1.34956 0,2.02434 0,1.63875 0,3.2775 0,4.91626 0,0.67478 0,1.34956 0,2.02434 0,0.28919 0.0567,0.584 0,0.86758 -0.0423,0.21136 -0.23692,0.36926 -0.2892,0.57838 -0.0468,0.18704 0,0.38559 0,0.57838 -0.0964,0.1928 -0.22102,0.3739 -0.28919,0.57839 -0.0915,0.27435 0.0567,0.584 0,0.86757 0.56254,0.80346 -0.47382,0.73854 -0.57838,1.15677 -0.0701,0.28056 0.12933,0.60891 0,0.86758 -0.0964,0.19279 -0.42597,0.13677 -0.57838,0.28919 -0.18102,0.18101 -0.76978,1.25246 -1.15677,1.44596 -0.0862,0.0431 -0.20899,-0.0535 -0.28919,0 -0.22686,0.15124 -0.38559,0.38558 -0.57839,0.57838 -0.0964,0.0964 -0.15986,0.24608 -0.28919,0.28919 -0.1829,0.061 -0.39134,-0.0468 -0.57838,0 -0.41823,0.10456 -0.7565,0.41828 -1.15677,0.57839 -0.28303,0.11321 -0.59492,0.15286 -0.86758,0.28919 -0.12193,0.061 -0.15986,0.24608 -0.28919,0.28919 -0.27435,0.0914 -0.57838,0 -0.86757,0 -0.96398,0 -1.92795,0 -2.89192,0 -0.77118,0 -1.54236,0 -2.31354,0 -0.19279,0 -0.38933,0.0378 -0.57838,0 -0.29892,-0.0598 -0.56866,-0.22941 -0.86757,-0.28919 -0.18906,-0.0378 -0.39135,0.0468 -0.57839,0 -0.20911,-0.0523 -0.38559,-0.1928 -0.57838,-0.28919 -0.2892,-0.0964 -0.56866,-0.22941 -0.86758,-0.2892 -1.10293,-0.22058 -0.0481,0.40975 -1.44596,-0.28919 -1.18681,-0.5934 -0.54934,-0.43947 -1.44596,-1.15677 -0.2714,-0.21712 -0.56954,-0.39956 -0.86757,-0.57838 0.0329,-0.54785 -0.67478,-0.19279 -0.86758,-0.28919 -0.12193,-0.061 -0.17576,-0.21357 -0.28919,-0.28919 -0.17935,-0.11957 -0.42597,-0.13678 -0.57838,-0.28919 -0.15242,-0.15242 -0.13678,-0.42597 -0.28919,-0.57839 -0.0682,-0.0682 -0.19775,0.0305 -0.2892,0 -0.20448,-0.0682 -0.42596,-0.13677 -0.57838,-0.28919 -0.15242,-0.15242 -0.15454,-0.41007 -0.28919,-0.57838 -0.25549,-0.31936 -0.57838,-0.57839 -0.86758,-0.86758 -0.0964,-0.0964 -0.17576,-0.21357 -0.28919,-0.28919 -1.05047,-0.70032 -0.20451,0.0847 -0.86758,-0.57838 -0.28918,-0.2892 -0.57838,-0.57839 -0.86757,-0.86758 -0.0964,-0.0964 -0.17576,-0.21357 -0.28919,-0.28919 -0.17935,-0.11957 -0.37389,-0.22103 -0.57839,-0.28919 -0.0915,-0.0305 -0.20898,0.0535 -0.28919,0 -0.69426,-0.46285 -0.75669,-1.15677 -1.73515,-1.15677 -0.0964,0 -0.20297,-0.0431 -0.28919,0 -1.20355,0.60177 0.30916,-0.02 -0.28919,0.57838 -0.35223,0.35223 -0.64612,0.13547 -0.86758,0.57839 -0.0431,0.0862 0.0431,0.20297 0,0.28919 -0.061,0.12193 -0.21357,0.17576 -0.28919,0.28919 -0.11956,0.17935 -0.16962,0.39903 -0.28919,0.57838 -0.0756,0.11343 -0.21357,0.17576 -0.28919,0.2892 -0.11957,0.17934 -0.13678,0.42596 -0.28919,0.57838 -0.15242,0.15242 -0.44906,0.11675 -0.57839,0.28919 -0.1829,0.24387 -0.15286,0.59492 -0.28919,0.86758 -0.061,0.12193 -0.25613,0.15693 -0.28919,0.28919 -0.0701,0.28056 0.0567,0.584 0,0.86757 -0.0423,0.21137 -0.23692,0.36927 -0.28919,0.57839 -0.0468,0.18704 0.0468,0.39134 0,0.57838 -0.0523,0.20912 -0.22103,0.3739 -0.28919,0.57838 -0.0964,0.3856 -0.1928,0.77118 -0.2892,1.15677 0,0.1928 0.0468,0.39135 0,0.57839 -0.0523,0.20911 -0.24692,0.36701 -0.28919,0.57838 -0.11343,0.56715 0.0951,1.16464 0,1.73515 -0.0501,0.30069 -0.23908,0.56689 -0.28919,0.86757 -0.0475,0.28526 0,0.57839 0,0.86758 0,0.38559 0,0.77118 0,1.15677 0,0.28919 0.0475,0.58232 0,0.86757 -0.0501,0.30069 -0.22941,0.56867 -0.28919,0.86758 -0.0756,0.3781 0.0935,0.78269 0,1.15677 -0.0523,0.20911 -0.24692,0.36702 -0.28919,0.57838 -0.0567,0.28358 0,0.57838 0,0.86758 0,0.48198 0,0.96397 0,1.44595 0,0.2892 0.0701,0.58702 0,0.86758 -0.0331,0.13226 -0.24609,0.15986 -0.2892,0.28919 -0.1829,0.25951 0.0915,0.59323 0,0.86758 -0.0682,0.20449 -0.23691,0.36927 -0.28919,0.57838 -0.0468,0.18704 0.0862,0.40594 0,0.57839 -0.28919,0.57838 -0.57838,0.43378 -0.86757,0.86757 -0.71041,0.10312 -0.1201,0.61394 -0.2892,0.86758 -0.15123,0.22686 -0.40806,0.36547 -0.57838,0.57838 -0.0662,0.0828 -0.56316,0.97412 -0.86757,1.15677 -1.14539,0.68723 -1.3066,0.43902 -2.31354,1.44596 -0.15242,0.15241 -0.11675,0.44905 -0.28919,0.57838 -0.0122,0.009 -1.66165,0.54898 -1.73515,0.57838 -0.40027,0.16011 -0.7565,0.41828 -1.15677,0.57839 -0.28303,0.11321 -0.60618,0.13235 -0.86757,0.28919 -0.2338,0.14028 -0.34459,0.4381 -0.57839,0.57838 -0.01,0.006 -1.69767,0.56339 -1.73515,0.57839 -0.6907,0.27627 -1.26723,0.74139 -2.02434,0.86757 -0.47543,0.0792 -0.97836,-0.1169 -1.44596,0 -1.34259,0.67129 0.16646,0.0246 -1.15677,0.28919 -0.29891,0.0598 -0.57838,0.1928 -0.86757,0.28919 -0.28919,0.0964 -0.59493,0.15287 -0.86758,0.2892 -0.12193,0.061 -0.15551,0.26245 -0.28919,0.28919 -0.3781,0.0756 -0.77642,-0.0634 -1.15677,0 -0.21262,0.0354 -0.36702,0.24692 -0.57838,0.28919 -0.28358,0.0567 -0.58129,-0.0409 -0.86758,0 -1.09696,0.15671 -2.08158,0.73014 -3.18111,0.86758 -0.38261,0.0478 -0.77415,-0.0478 -1.15676,0 -0.78878,0.0986 -1.52257,0.49928 -2.31354,0.57838 -0.57551,0.0575 -1.16609,-0.10346 -1.73515,0 -0.51074,0.0929 -0.94234,0.45248 -1.44596,0.57838 -0.661279,0.16532 -1.350639,0.18555 -2.024339,0.2892 -0.57954,0.0891 -1.15825,0.1843 -1.73515,0.28919 -0.96721,0.17585 -1.92795,0.38559 -2.89192,0.57838 -0.48199,0.0964 -0.95743,0.23491 -1.44596,0.28919 -0.38323,0.0426 -0.77354,-0.0426 -1.15677,0 -0.48852,0.0543 -0.96235,0.20126 -1.44596,0.28919 -0.5769,0.1049 -1.15824,0.1843 -1.73515,0.2892 -0.4836,0.0879 -0.95686,0.24028 -1.44596,0.28919 -0.47959,0.048 -0.96769,-0.0598 -1.44596,0 -0.30248,0.0378 -0.5646,0.25553 -0.86757,0.28919 -0.57485,0.0639 -1.15677,0 -1.73515,0 -0.481986,0 -0.963975,0 -1.445961,0 -0.385588,0 -0.773536,-0.0426 -1.156767,0 -0.488524,0.0543 -0.957434,0.23491 -1.445958,0.28919 -0.38323,0.0426 -0.771178,0 -1.156769,0 -0.578382,0 -1.156766,0 -1.735151,0 -0.67478,0 -1.35155,-0.0517 -2.024343,0 -0.584634,0.045 -1.156766,0.1928 -1.73515,0.28919 -0.578382,0.0964 -1.156767,0.1928 -1.735151,0.28919 -0.578382,0.0964 -1.150813,0.2405 -1.735151,0.2892 -0.576384,0.048 -1.156766,0 -1.73515,0 -1.060371,0 -2.120739,0 -3.18111,0 -0.578384,0 -1.159142,-0.0524 -1.73515,0 -0.489514,0.0445 -0.956128,0.24837 -1.445961,0.28919 -0.67245,0.056 -1.349561,0 -2.024341,0 -0.674782,0 -1.349563,0 -2.024343,0 -2.217139,0 -4.434276,0 -6.651413,0 -2.313535,0 -4.627068,0 -6.940603,0 -0.867576,0 -1.73515,0 -2.602727,0 -0.385588,0 -0.775052,0.0545 -1.156766,0 -0.301771,-0.0431 -0.578385,-0.19279 -0.867577,-0.28919 -0.957503,-0.31917 -1.94655,-0.51307 -2.891917,-0.86758 -0.486063,-0.18227 -0.945137,-0.44179 -1.445959,-0.57838 -0.5657,-0.15429 -1.162753,-0.162 -1.73515,-0.28919 -0.728059,-0.16179 -1.366126,-0.53847 -2.024343,-0.86758 -0.192797,-0.0964 -0.369269,-0.23691 -0.578385,-0.28919 -0.187039,-0.0468 -0.395483,0.061 -0.578384,0 -0.129331,-0.0431 -0.17576,-0.21357 -0.289192,-0.28919 -0.358699,-0.23914 -0.798068,-0.33925 -1.156767,-0.57839 -0.113429,-0.0756 -0.17576,-0.21357 -0.289192,-0.28919 -0.179348,-0.11956 -0.399034,-0.16962 -0.578382,-0.28919 -0.336383,-0.22425 -0.720394,-1.078 -0.867576,-1.44596 -0.113213,-0.28303 -0.152866,-0.59492 -0.289192,-0.86758 -1.79818,-2.69726 0.03891,0.40594 -0.578385,-1.44595 -0.04311,-0.12934 -0.192794,-0.1928 -0.28919,-0.2892 -0.0964,-0.19279 -0.246919,-0.36701 -0.289192,-0.57838 -0.05672,-0.28358 0,-0.57838 0,-0.86758 0,-0.77117 0,-1.54235 0,-2.31353 0,-0.77118 0,-1.54235 0,-2.31353 0,-0.2892 -0.05672,-0.584 0,-0.86758 0.04227,-0.21136 0.192794,-0.38559 0.289192,-0.57838 0.0964,-0.1928 0.169625,-0.39904 0.28919,-0.57839 0.07562,-0.11343 0.213572,-0.17576 0.289192,-0.28919 0.119568,-0.17935 0.20914,-0.37825 0.289193,-0.57838 0.113212,-0.28304 0.04993,-0.67869 0.289192,-0.86758 1.636789,-1.2922 3.470301,-2.31353 5.205452,-3.4703 0.50922,-0.33948 0.890175,-0.64526 1.445958,-0.86757 0.283033,-0.11322 0.623708,-0.1063 0.867577,-0.2892 0.17244,-0.12933 0.0964,-0.48198 0.289192,-0.57838 0.25866,-0.12933 0.587018,0.0701 0.867574,0 0.132258,-0.0331 0.175763,-0.21357 0.289193,-0.28919 0.17935,-0.11957 0.405942,-0.15986 0.578384,-0.28919 0.218122,-0.1636 0.344585,-0.43811 0.578384,-0.57839 0.261393,-0.15683 0.584542,-0.17598 0.867574,-0.28919 0.661054,-0.26442 0.767001,-0.4602 1.445959,-0.86757 1.263441,-0.75807 -0.209333,0.24926 1.445961,-0.57839 0.31087,-0.15543 0.621808,-0.33262 0.867574,-0.57838 0.152419,-0.15242 0.0964,-0.48199 0.289192,-0.57838 0.258662,-0.12934 0.608915,0.12932 0.867577,0 0.192794,-0.0964 0.109842,-0.45882 0.28919,-0.57839 0.160416,-0.10694 0.395483,0.061 0.578384,0 0.129331,-0.0431 0.167259,-0.22822 0.289192,-0.28919 0.08622,-0.0431 0.202973,0.0431 0.289192,0 0.121934,-0.061 0.167257,-0.22823 0.289193,-0.28919 0.27265,-0.13633 0.606181,-0.13236 0.867574,-0.2892 0.233799,-0.14027 0.334515,-0.45644 0.578384,-0.57838 0.17244,-0.0862 0.389332,0.0378 0.578385,0 0.298913,-0.0598 0.584541,-0.17598 0.867574,-0.28919 0.200133,-0.0801 0.38559,-0.19279 0.578384,-0.28919 0.192794,-0.0964 0.399034,-0.16963 0.578382,-0.28919 0.113432,-0.0756 0.167259,-0.22823 0.289192,-0.2892 0.08622,-0.0431 0.22103,0.0682 0.289192,0 0.06817,-0.0682 -0.06816,-0.22102 0,-0.28919 0.136327,-0.13632 0.442058,0.13633 0.578385,0 0.136326,-0.13632 -0.08622,-0.40594 0,-0.57838 0.06097,-0.12194 0.192794,-0.19279 0.289192,-0.28919"
       id="path1904" />
    <path
       style="fill:none;fill-rule:evenodd;stroke:#000000;stroke-width:0.264583px;stroke-linecap:butt;stroke-linejoin:miter;stroke-opacity:1"
       d="m 121.74975,43.378773 c 0.49596,0.826598 1.23919,1.486935 1.73516,2.313533 0.3327,0.5545 0.55792,1.167458 0.86757,1.735153 1.26815,2.324941 0.70417,0.66656 1.73515,3.759491 0.25138,0.75412 0.36001,1.54921 0.57838,2.31354 0.23543,0.824 0.44924,1.12028 0.57839,2.02434 0.0409,0.28629 -0.0475,0.58232 0,0.86757 0.10023,0.60138 0.47815,1.13378 0.57838,1.73516 0.0475,0.28525 -0.0475,0.58231 0,0.86757 0.4231,2.53858 0.10638,-0.44206 0.57839,1.44596 0.0468,0.18704 -0.061,0.39548 0,0.57838 0.0431,0.12933 0.21357,0.17577 0.28919,0.28919 0.11956,0.17936 0.22103,0.3739 0.28919,0.57839 0.061,0.1829 -0.0862,0.40594 0,0.57838 0.061,0.12194 0.22822,0.16726 0.28919,0.28919 0.0431,0.0862 -0.0682,0.22103 0,0.2892 0.0682,0.0682 0.22103,-0.0682 0.28919,0 0.13633,0.13632 -0.13632,0.44205 0,0.57838 0.0682,0.0682 0.22103,-0.0682 0.28919,0 0.0682,0.0682 0,0.19279 0,0.28919 0,0.0964 0,0.1928 0,0.28919"
       id="path1906" />
    <path
       style="fill:none;fill-rule:evenodd;stroke:#000000;stroke-width:0.264583px;stroke-linecap:butt;stroke-linejoin:miter;stroke-opacity:1"
       d="m 151.24732,40.197661 c -0.46004,1.542878 -1.39638,2.872635 -2.02434,4.337878 -0.12008,0.280189 -0.16911,0.587389 -0.2892,0.867577 -0.42454,0.990611 -0.96397,1.927945 -1.44595,2.891917 -0.38559,0.771179 -0.77118,1.542357 -1.15677,2.313537 -0.1928,0.38559 -0.40856,0.76052 -0.57838,1.15676 -0.69524,1.62222 0.22857,0.10609 -0.86758,2.02435 -0.34488,0.60354 -0.8459,1.1134 -1.15677,1.73515 -0.27265,0.5453 -0.35195,1.16909 -0.57838,1.73515 -0.08,0.20013 -0.20914,0.37825 -0.28919,0.57838 -0.11322,0.28304 -0.21526,0.57184 -0.28919,0.86758 -0.0234,0.0935 0.0535,0.20898 0,0.28919 -0.15125,0.22686 -0.45646,0.33451 -0.57839,0.57838 -0.0862,0.17244 0.0468,0.39135 0,0.57839 -0.0523,0.20911 -0.19279,0.38559 -0.28919,0.57838 -0.19279,0.38559 -0.44206,0.74779 -0.57839,1.15677 -0.0305,0.0915 0.0431,0.20297 0,0.28919 -0.061,0.12193 -0.24608,0.15986 -0.28918,0.28919 -0.35736,1.07207 0.38901,0.18937 -0.2892,0.86758"
       id="path1908" />
    <path
       style="fill:none;fill-rule:evenodd;stroke:#000000;stroke-width:0.264583px;stroke-linecap:butt;stroke-linejoin:miter;stroke-opacity:1"
       d="m 163.10418,102.95229 c -0.38559,-0.0964 -0.80127,-0.11145 -1.15676,-0.2892 -0.24387,-0.12193 -0.36548,-0.40805 -0.57839,-0.57838 -0.82102,-0.65682 -1.21021,-0.63183 -2.02434,-1.44596 -0.24577,-0.24576 -0.33262,-0.62181 -0.57838,-0.86757 -0.49154,-0.49153 -1.24362,-0.66524 -1.73515,-1.15677 -0.15242,-0.15242 -0.13678,-0.42597 -0.2892,-0.57838 -0.15241,-0.15242 -0.40594,-0.15987 -0.57838,-0.2892 -0.21812,-0.16359 -0.34459,-0.4381 -0.57838,-0.57838 -0.2614,-0.15684 -0.62954,-0.0988 -0.86758,-0.28919 -0.2714,-0.21712 -0.33262,-0.62181 -0.57838,-0.86758 -0.24577,-0.24576 -0.62181,-0.33261 -0.86758,-0.57838 -0.24576,-0.24577 -0.36984,-0.58952 -0.57838,-0.86758 -0.24539,-0.32718 -0.62219,-0.54039 -0.86758,-0.86757 -0.12933,-0.17244 -0.15986,-0.40594 -0.28919,-0.57839 -0.32718,-0.43624 -0.87621,-0.68917 -1.15677,-1.15676 -0.15683,-0.2614 -0.16911,-0.58739 -0.28919,-0.86758 -0.16982,-0.39624 -0.35658,-0.7871 -0.57838,-1.15676 -0.49632,-0.8272 -0.14172,0.44241 -0.57839,-0.86758 -0.0305,-0.0915 0.0305,-0.19774 0,-0.28919 -0.0682,-0.20449 -0.19279,-0.38559 -0.28919,-0.57839 -0.0964,-0.19279 -0.16962,-0.39903 -0.28919,-0.57838 -0.0756,-0.11343 -0.21357,-0.17576 -0.28919,-0.28919 -0.3323,-0.49845 -0.28919,-0.43714 -0.28919,-0.86758"
       id="path1910" />
    <path
       style="fill:none;fill-rule:evenodd;stroke:#000000;stroke-width:0.264583px;stroke-linecap:butt;stroke-linejoin:miter;stroke-opacity:1"
       d="m 139.67965,83.86563 c 0.8502,-0.16832 1.31212,0.68952 2.02434,0.86757 0.18704,0.0468 0.39134,-0.0468 0.57838,0 0.20912,0.0523 0.3739,0.22103 0.57839,0.28919 0.0915,0.0305 0.19774,-0.0305 0.28919,0 0.20449,0.0682 0.36927,0.23692 0.57838,0.2892 0.18704,0.0468 0.38559,0 0.57839,0 0.19279,0 0.38558,0 0.57838,0 0.0964,0 0.19774,-0.0305 0.28919,0 0.20449,0.0682 0.3739,0.22103 0.57839,0.28919 0.18151,0.0605 0.92395,0 1.15676,0 0.27237,0 1.28145,0.0548 1.44596,0 0.12933,-0.0431 0.16726,-0.22823 0.28919,-0.28919 0.0862,-0.0431 0.20297,0.0431 0.28919,0 0.12194,-0.061 0.16726,-0.22823 0.2892,-0.2892 0.3989,-0.19945 0.25867,0.35023 0.57838,-0.28919 0.0431,-0.0862 -0.0682,-0.22103 0,-0.28919 0.0682,-0.0682 0.22103,0.0682 0.28919,0 0.0682,-0.0682 -0.0682,-0.22103 0,-0.28919 0.15242,-0.15242 0.39904,-0.16963 0.57838,-0.28919 0.42552,-0.28368 0.2892,-0.35346 0.2892,-0.86758"
       id="path1912" />
    <ellipse
       style="fill:#ffffff;fill-rule:evenodd;stroke:#808080;stroke-width:0.264583"
       id="path1966"
       cx="145.60808"
       cy="73.310135"
       rx="6.7960081"
       ry="5.0608568" />
    <ellipse
       style="fill:#000000;fill-rule:evenodd;stroke:#808080;stroke-width:0.264583"
       id="path1968"
       cx="150.52434"
       cy="73.743919"
       rx="2.4581306"
       ry="2.6027265" />
    <path
       style="fill:#cccccc;fill-rule:evenodd;stroke:#808080;stroke-width:0.289192"
       d="m 35.859786,133.87416 c -6.157296,-2.00713 -6.314683,-2.06914 -8.097372,-3.19031 -1.290806,-0.81182 -1.546807,-1.15375 -2.385832,-3.18673 -0.827736,-2.00562 -0.939874,-2.59545 -0.939874,-4.94357 0,-2.39635 0.08873,-2.84085 0.876525,-4.39113 0.804272,-1.5827 1.120121,-1.87992 3.831791,-3.60574 1.625396,-1.03447 3.313141,-2.01578 3.750545,-2.1807 0.437401,-0.16491 0.795277,-0.43319 0.795277,-0.59619 0,-0.16299 0.242723,-0.29634 0.539385,-0.29634 0.296661,0 0.849738,-0.24015 1.229063,-0.53366 0.379325,-0.29351 1.712651,-1.03617 2.962947,-1.65036 1.250294,-0.61419 2.33784,-1.285 2.416771,-1.49069 0.07893,-0.20569 0.38986,-0.37398 0.690954,-0.37398 0.301093,0 0.547444,-0.10931 0.547444,-0.2429 0,-0.1336 0.522406,-0.41532 1.160907,-0.62604 0.638498,-0.21073 1.305113,-0.55689 1.481367,-0.76927 0.176255,-0.21237 0.611709,-0.38613 0.967677,-0.38613 0.645131,0 2.623079,-1.18024 3.181334,-1.8983 0.3928,-0.50523 3.443533,-1.54518 5.065577,-1.72677 0.715751,-0.0801 1.916589,-0.34785 2.668527,-0.59493 0.751941,-0.24708 1.505196,-0.36393 1.6739,-0.25967 0.289732,0.17907 2.638864,-0.25536 3.899543,-0.72114 0.318108,-0.11753 1.098928,-0.368966 1.73515,-0.558744 0.63622,-0.189775 1.742379,-0.582165 2.45813,-0.871977 2.627313,-1.063813 4.230489,-1.468673 5.810173,-1.467276 0.889292,7.94e-4 2.255722,-0.192362 3.036515,-0.429225 0.780791,-0.236861 1.919724,-0.432065 2.530962,-0.433787 1.580168,-0.0044 6.600491,-1.06575 9.154969,-1.935364 2.816932,-0.958958 6.73477,-2.899711 9.310614,-4.612126 2.76679,-1.83936 7.117295,-6.051516 9.196125,-8.903674 0.93694,-1.285494 1.97087,-2.634263 2.2976,-2.997263 0.32674,-0.363001 1.2471,-1.534227 2.04526,-2.602728 1.74122,-2.330971 2.8287,-3.53328 3.19584,-3.53328 0.14906,0 0.27202,-0.162671 0.27324,-0.36149 0.002,-0.299733 1.6843,-1.483632 2.73506,-1.9246 0.15354,-0.06443 0.47888,-0.333087 0.72298,-0.597003 0.2441,-0.263919 0.96437,-0.647642 1.60059,-0.852715 0.63622,-0.205073 1.92584,-0.749774 2.86581,-1.210445 0.93998,-0.460671 1.90579,-0.837584 2.14625,-0.837584 0.24047,0 1.25353,-0.326577 2.25125,-0.725731 0.99772,-0.399153 2.63463,-0.809423 3.63759,-0.911711 1.00295,-0.102291 1.889,-0.284459 1.969,-0.404821 0.28705,-0.43185 7.00719,-0.884052 10.99307,-0.73973 2.8485,0.10314 4.33442,0.281763 4.96634,0.597009 0.49594,0.247409 1.0222,0.449834 1.16945,0.449834 0.32014,0 3.29789,1.142203 6.28238,2.409788 1.79734,0.763375 2.58001,1.338651 4.69937,3.454161 1.39857,1.396035 2.54286,2.666199 2.54286,2.822586 0,0.15639 0.43562,0.904105 0.96805,1.661594 0.53242,0.757489 1.13242,1.894845 1.33332,2.527461 0.20091,0.632619 0.59311,1.670759 0.87157,2.306979 1.13025,2.582399 1.22548,3.2395 1.37754,9.504892 0.11342,4.673224 0.0543,6.748962 -0.22656,7.952774 -0.20902,0.895948 -0.35022,1.845204 -0.31379,2.109462 0.0364,0.264258 -0.0701,0.564742 -0.2368,0.66775 -0.16666,0.103002 -0.30303,0.362264 -0.30303,0.576124 0,0.21387 -0.41516,0.85778 -0.92258,1.43092 -0.69899,0.78953 -1.06695,0.99646 -1.51826,0.85384 -0.73437,-0.23206 -2.2881,-1.35473 -3.63219,-2.624479 -2.16189,-2.042334 -3.59988,-3.264368 -3.84124,-3.264368 -0.57296,0 -5.1237,-5.263507 -5.1237,-5.926206 0,-0.196908 -0.26027,-0.688899 -0.57839,-1.093311 -0.31811,-0.404411 -0.57838,-0.917224 -0.57838,-1.139582 0,-0.222359 -0.32534,-0.845262 -0.72298,-1.384231 -1.14049,-1.545844 -0.84617,-0.366657 0.61562,2.46648 1.50849,2.923667 4.95662,7.268705 6.09988,7.686561 0.40734,0.148881 2.58063,1.929956 3.55791,2.915816 0.94645,0.95475 3.21127,2.69928 3.77309,2.90632 0.30903,0.11388 0.2674,0.20207 -0.16529,0.35009 -0.31811,0.10883 -1.13494,0.44932 -1.81519,0.75665 -1.57316,0.71075 -6.59918,0.78794 -8.53396,0.13106 -1.08367,-0.36791 -2.13166,-0.62726 -2.85919,-0.70755 -0.10709,-0.0118 -0.56256,-0.33089 -1.01217,-0.70904 -0.4496,-0.37815 -1.31328,-0.96593 -1.91928,-1.30617 -0.606,-0.34024 -1.25668,-0.75591 -1.44596,-0.92371 -0.18928,-0.1678 -1.32017,-1.206039 -2.51308,-2.307195 -1.19292,-1.101157 -2.31144,-2.002796 -2.48561,-2.00364 -0.17417,-7.93e-4 -0.55221,-0.261808 -0.8401,-0.579919 -0.28788,-0.318111 -0.86475,-0.578384 -1.28191,-0.578384 -0.7812,0 -1.1105,0.286541 -2.32649,2.024343 -0.38953,0.556696 -0.86805,1.142309 -1.06338,1.301363 -0.56885,0.463228 -1.85361,5.863112 -1.99536,8.386562 -0.0715,1.27244 -0.25941,3.35463 -0.41764,4.62707 -0.15822,1.27244 -0.34004,2.83408 -0.40405,3.4703 -0.22673,2.25374 -0.52054,3.19015 -1.23916,3.94936 -0.39994,0.42254 -0.69305,0.81295 -0.65135,0.86758 0.23776,0.31151 -0.94706,1.58891 -2.26063,2.43728 -0.83504,0.53931 -1.51826,1.09488 -1.51826,1.2346 0,0.13972 -0.81335,0.54692 -1.80744,0.90489 -0.9941,0.35798 -2.00266,0.81681 -2.24124,1.01963 -0.62153,0.52836 -4.28646,1.94323 -4.5737,1.7657 -0.2769,-0.17113 -3.52249,0.62719 -3.95746,0.97343 -0.15906,0.1266 -1.00494,0.326 -1.87975,0.4431 -0.8748,0.1171 -1.89884,0.32954 -2.27564,0.47209 -0.78782,0.29805 -4.32764,0.88447 -5.82173,0.96445 -0.55669,0.0298 -1.46765,0.1999 -2.02434,0.378 -0.55669,0.1781 -2.964215,0.65228 -5.350048,1.05373 -2.385832,0.40146 -5.509104,0.9339 -6.940605,1.1832 -1.431499,0.2493 -5.465726,0.58245 -8.964946,0.74032 -3.49922,0.15787 -7.663582,0.48692 -9.254138,0.73122 -2.203204,0.3384 -6.301044,0.47395 -17.206912,0.56919 l -14.314996,0.12502 z M 149.08811,85.450972 c 0.96029,-0.513926 2.01462,-1.634238 2.01462,-2.140688 0,-0.355108 -0.25738,-0.216111 -0.93988,0.507593 -0.51693,0.548132 -1.24915,1.154385 -1.62717,1.347224 -0.89041,0.454236 -3.88199,0.146822 -6.07325,-0.624084 -0.89431,-0.314624 -1.95136,-0.639511 -2.349,-0.721971 -0.68041,-0.141099 -0.6719,-0.117501 0.1446,0.40082 1.90879,1.211715 7.42839,1.981269 8.83008,1.231106 z m -0.8262,-7.233938 c 1.1105,-0.308438 3.88676,-2.075746 4.49447,-2.86109 0.19376,-0.250394 0.35578,-0.97581 0.36003,-1.612033 0.01,-1.480727 -1.63414,-3.746391 -3.44362,-4.745664 -1.48967,-0.822658 -4.70819,-1.135618 -6.55146,-0.637045 -5.67597,1.535245 -6.01773,7.769037 -0.53304,9.722866 1.35076,0.481187 4.18106,0.547515 5.67362,0.132966 z"
       id="path2091" />
    <path
       style="fill:#784421;fill-rule:evenodd;stroke:#808080;stroke-width:0.289192"
       d="M 46.027253,101.84179 C 35.337274,94.398482 28.145489,83.356856 25.546042,70.396784 24.591997,65.640192 24.577675,56.967725 25.516229,52.342938 27.44007,42.863087 31.473008,35.289611 38.153507,28.611337 44.717568,22.049459 52.108438,18.089078 61.423894,16.141954 c 4.689313,-0.980163 12.110865,-1.094346 16.513301,-0.254059 7.665472,1.463093 14.390196,4.653368 20.30045,9.630725 7.298885,6.146805 12.402715,15.459768 14.000275,25.546296 0.57614,3.637626 0.41434,11.109793 -0.31104,14.364224 -1.7023,7.637433 -5.22974,14.146794 -10.54838,19.465427 C 88.52001,97.75306 68.374559,99.801668 53.72481,89.740516 43.496664,82.716038 37.638466,69.589744 39.194232,57.182286 40.662405,45.473365 48.417178,35.601814 59.392378,31.470761 c 4.303165,-1.619708 9.086392,-2.259854 13.558739,-1.814587 12.097909,1.204471 21.549135,9.167458 24.696666,20.807796 0.879808,3.253751 0.945338,9.745152 0.12991,12.869037 -2.507509,9.60619 -9.986054,16.573336 -19.583299,18.244153 -8.855572,1.541696 -17.796692,-2.424692 -22.12903,-9.816703 -0.563364,-0.961234 -1.424347,-2.925302 -1.913292,-4.364593 -0.789516,-2.324071 -0.888931,-2.989037 -0.888439,-5.942602 5.29e-4,-4.173276 0.827958,-6.986993 3.016128,-10.258579 3.170981,-4.741013 8.132453,-7.386621 13.837716,-7.378692 4.363152,0.0061 7.846201,1.445747 10.541842,4.35736 6.200087,6.696834 4.151672,16.9203 -3.858101,19.25547 -2.922188,0.851934 -6.128465,0.06331 -8.03206,-1.975602 -2.020197,-2.163786 -2.0326,-6.190009 -0.02339,-7.597301 1.375045,-0.963118 3.813246,-0.236119 3.480144,1.037672 -0.112202,0.429056 -0.05842,0.560737 0.171103,0.418886 0.668391,-0.413089 0.371298,-1.584955 -0.518469,-2.045071 -2.792712,-1.444164 -5.560857,1.118931 -5.130731,4.750676 0.205306,1.733476 0.718843,2.778792 1.986687,4.043923 3.37712,3.369895 9.49902,2.813193 13.099312,-1.191196 3.334813,-3.709117 3.858993,-8.94121 1.390179,-13.876081 -3.045796,-6.088184 -10.091423,-9.022805 -17.260475,-7.189269 -3.283865,0.839873 -5.487937,2.115445 -7.985781,4.621652 -3.585744,3.597749 -5.187566,7.621527 -5.195938,13.052189 -0.0089,5.757588 1.94472,10.358287 6.19315,14.584839 3.041748,3.026084 5.919309,4.661315 9.982909,5.672989 3.285501,0.81796 9.211328,0.659882 12.305062,-0.32825 8.461179,-2.702475 14.584431,-9.096565 16.832818,-17.577352 1.058608,-3.99301 1.05919,-9.379961 0.0013,-13.401932 -2.997303,-11.396911 -11.93941,-19.384639 -23.61131,-21.091297 -3.290888,-0.48119 -8.728924,-0.202689 -11.85472,0.607123 -20.536622,5.320514 -30.144442,27.964077 -20.172224,47.541587 5.15566,10.121625 15.282687,17.275598 26.448548,18.683888 1.3876,0.175014 3.043455,0.429929 3.679677,0.566489 1.091369,0.234249 1.058669,0.246406 -0.578384,0.215043 -1.716241,-0.03288 -3.250888,0.359132 -7.430228,1.897983 -1.064572,0.39198 -1.996771,0.65151 -2.07155,0.576731 -0.07478,-0.07478 -0.440063,0.0607 -0.811739,0.301061 -0.371676,0.240366 -1.934742,0.575579 -3.473481,0.744919 -1.538743,0.16933 -3.155355,0.44386 -3.592473,0.61005 -0.437116,0.16619 -0.961152,0.23832 -1.164519,0.16028 -0.203372,-0.078 -1.146447,0.1737 -2.095727,0.55943 -2.868248,1.16547 -3.714986,1.17164 -5.341792,0.0389 z"
       id="path2162" />
    <path
       style="fill:none;fill-rule:evenodd;stroke:#000000;stroke-width:0.264583px;stroke-linecap:butt;stroke-linejoin:miter;stroke-opacity:1"
       d="m 135.92015,69.11684 c 0.1928,-0.48198 0.29043,-1.01402 0.57839,-1.44595 0.11956,-0.17935 0.38558,-0.1928 0.57838,-0.2892 0.1928,-0.0964 0.37389,-0.22103 0.57838,-0.28919 0.0915,-0.0305 0.20899,0.0535 0.2892,0 0.22686,-0.15124 0.35152,-0.42714 0.57838,-0.57838 0.0802,-0.0535 0.19279,0 0.28919,0 0.0964,0 0.1928,0 0.28919,0 0.48199,0 0.96398,0 1.44596,0 0.2892,0 0.58702,0.0701 0.86758,0 0.13225,-0.0331 0.15551,-0.26246 0.28919,-0.2892 0.3781,-0.0756 0.77118,0 1.15677,0 0.67478,0 1.34956,0 2.02434,0 0.96397,0 1.92795,0 2.89192,0 0.23076,0 1.27246,-0.0578 1.44596,0 0.19279,0.0964 0.38559,0.1928 0.57838,0.2892 0,0.0964 -0.0682,0.22103 0,0.28919 0.0696,0.0696 1.08718,-0.0696 1.15677,0 0.38559,0.38559 -0.48199,0.28919 0.28919,0.28919"
       id="path2302" />
  </g>
</svg>
