<?xml version="1.0" encoding="UTF-8" standalone="no"?>
<!-- Created with Inkscape (http://www.inkscape.org/) -->

<svg
   width="180mm"
   height="150mm"
   viewBox="0 0 180 150"
   version="1.1"
   id="svg5"
   inkscape:version="1.2.1 (9c6d41e410, 2022-07-14)"
   sodipodi:docname="ryba.svg"
   xmlns:inkscape="http://www.inkscape.org/namespaces/inkscape"
   xmlns:sodipodi="http://sodipodi.sourceforge.net/DTD/sodipodi-0.dtd"
   xmlns:xlink="http://www.w3.org/1999/xlink"
   xmlns="http://www.w3.org/2000/svg"
   xmlns:svg="http://www.w3.org/2000/svg">
  <sodipodi:namedview
     id="namedview7"
     pagecolor="#ffffff"
     bordercolor="#666666"
     borderopacity="1.0"
     inkscape:showpageshadow="2"
     inkscape:pageopacity="0.0"
     inkscape:pagecheckerboard="0"
     inkscape:deskcolor="#d1d1d1"
     inkscape:document-units="mm"
     showgrid="false"
     inkscape:zoom="0.914906"
     inkscape:cx="278.71716"
     inkscape:cy="568.9109"
     inkscape:window-width="1637"
     inkscape:window-height="1408"
     inkscape:window-x="914"
     inkscape:window-y="0"
     inkscape:window-maximized="0"
     inkscape:current-layer="layer1" />
  <defs
     id="defs2">
    <linearGradient
       inkscape:collect="always"
       id="linearGradient1786">
      <stop
         style="stop-color:#ffaaaa;stop-opacity:1;"
         offset="0"
         id="stop1782" />
      <stop
         style="stop-color:#ffaaaa;stop-opacity:0;"
         offset="1"
         id="stop1784" />
    </linearGradient>
    <linearGradient
       inkscape:collect="always"
       id="linearGradient1778">
      <stop
         style="stop-color:#ffaaaa;stop-opacity:1;"
         offset="0"
         id="stop1774" />
      <stop
         style="stop-color:#ffaaaa;stop-opacity:0;"
         offset="1"
         id="stop1776" />
    </linearGradient>
    <linearGradient
       inkscape:collect="always"
       id="linearGradient1772">
      <stop
         style="stop-color:#ffaaaa;stop-opacity:1;"
         offset="0"
         id="stop1768" />
      <stop
         style="stop-color:#ffaaaa;stop-opacity:0;"
         offset="1"
         id="stop1770" />
    </linearGradient>
    <linearGradient
       inkscape:collect="always"
       id="linearGradient1756">
      <stop
         style="stop-color:#ffaaaa;stop-opacity:1;"
         offset="0"
         id="stop1752" />
      <stop
         style="stop-color:#ffaaaa;stop-opacity:0;"
         offset="1"
         id="stop1754" />
    </linearGradient>
    <linearGradient
       inkscape:collect="always"
       id="linearGradient1748">
      <stop
         style="stop-color:#ffd5d5;stop-opacity:1;"
         offset="0"
         id="stop1744" />
      <stop
         style="stop-color:#ffd5d5;stop-opacity:0;"
         offset="1"
         id="stop1746" />
    </linearGradient>
    <linearGradient
       inkscape:collect="always"
       id="linearGradient1526">
      <stop
         style="stop-color:#00ff00;stop-opacity:1;"
         offset="0"
         id="stop1522" />
      <stop
         style="stop-color:#00ff00;stop-opacity:0;"
         offset="1"
         id="stop1524" />
    </linearGradient>
    <linearGradient
       inkscape:collect="always"
       xlink:href="#linearGradient1526"
       id="linearGradient1528"
       x1="369.43686"
       y1="368.34384"
       x2="442.66843"
       y2="385.832"
       gradientUnits="userSpaceOnUse"
       gradientTransform="matrix(0.26458333,0,0,0.26458333,-12.146056,-17.640701)" />
    <linearGradient
       inkscape:collect="always"
       xlink:href="#linearGradient1748"
       id="linearGradient1750"
       x1="372.71588"
       y1="497.31885"
       x2="418.62225"
       y2="516.99298"
       gradientUnits="userSpaceOnUse"
       gradientTransform="matrix(0.26458333,0,0,0.26458333,-12.146056,-17.640701)" />
    <linearGradient
       inkscape:collect="always"
       xlink:href="#linearGradient1756"
       id="linearGradient1758"
       x1="497.31885"
       y1="412.06418"
       x2="534.48114"
       y2="433.92438"
       gradientUnits="userSpaceOnUse"
       gradientTransform="matrix(0.26458333,0,0,0.26458333,-12.146056,-17.640701)" />
    <linearGradient
       inkscape:collect="always"
       xlink:href="#linearGradient1772"
       id="linearGradient1766"
       x1="313.69342"
       y1="315.87946"
       x2="265.60104"
       y2="327.90253"
       gradientUnits="userSpaceOnUse"
       gradientTransform="matrix(0.26458333,0,0,0.26458333,-12.146056,-17.640701)" />
    <linearGradient
       inkscape:collect="always"
       xlink:href="#linearGradient1778"
       id="linearGradient1780"
       x1="299.48431"
       y1="328.99554"
       x2="279.81018"
       y2="304.94937"
       gradientUnits="userSpaceOnUse"
       gradientTransform="matrix(0.26458333,0,0,0.26458333,-12.146056,-17.640701)" />
    <linearGradient
       inkscape:collect="always"
       xlink:href="#linearGradient1786"
       id="linearGradient1788"
       x1="370.52988"
       y1="297.29831"
       x2="362.87881"
       y2="279.81018"
       gradientUnits="userSpaceOnUse"
       gradientTransform="matrix(0.26458333,0,0,0.26458333,-12.146056,-17.640701)" />
  </defs>
  <g
     inkscape:label="Warstwa 1"
     inkscape:groupmode="layer"
     id="layer1">
    <path
       style="fill:none;fill-rule:evenodd;stroke:#000000;stroke-width:0.264583px;stroke-linecap:butt;stroke-linejoin:miter;stroke-opacity:1"
       d="m 92.252194,76.346641 c -2.08785,-2.870785 -3.90115,-6.059416 -6.651414,-8.386564 -0.937993,-0.793687 -2.161844,-1.344833 -3.181112,-2.024343 -0.11343,-0.07562 -0.167256,-0.228225 -0.289192,-0.289193 -0.272651,-0.136326 -0.594921,-0.152865 -0.867574,-0.289192 -0.121934,-0.06097 -0.180131,-0.207393 -0.289193,-0.289189 -0.278053,-0.20854 -0.569539,-0.399564 -0.867576,-0.578385 -1.263438,-0.758065 0.209336,0.249261 -1.445959,-0.578384 -0.310872,-0.155435 -0.556702,-0.422947 -0.867574,-0.578382 -1.188878,-0.594439 -0.518199,-0.08637 -1.73515,-0.289192 -0.300689,-0.05011 -0.566889,-0.239078 -0.867577,-0.289193 -0.285258,-0.04754 -0.58951,0.07945 -0.867574,0 -0.414515,-0.118432 -0.742254,-0.459951 -1.156769,-0.578384 -0.278064,-0.07945 -0.578384,0 -0.867574,0 -0.867577,0 -1.735151,0 -2.602727,0 -0.963973,0 -1.927945,0 -2.891917,0 -0.09852,0 -1.000258,-0.05217 -1.156769,0 -0.204489,0.06817 -0.373894,0.22103 -0.578385,0.289192 -0.09145,0.03048 -0.192794,0 -0.289189,0 -0.192797,0 -0.395484,-0.06097 -0.578385,0 -0.129331,0.04311 -0.167259,0.228225 -0.289192,0.289192 -0.08622,0.04311 -0.202972,-0.04311 -0.289192,0 -0.121933,0.06097 -0.159861,0.246081 -0.289192,0.289193 -0.213747,0.07125 -1.316408,-0.08637 -1.445959,0 -0.226859,0.151238 -0.351523,0.427143 -0.578382,0.578381 -0.08021,0.05347 -0.202972,-0.04311 -0.289192,0 -0.121936,0.06097 -0.175763,0.213572 -0.289192,0.289193 -0.179351,0.119568 -0.399034,0.169627 -0.578385,0.289192 -0.401037,0.267359 -0.725664,0.652026 -1.156766,0.867577 -0.172442,0.08622 -0.389334,-0.03781 -0.578384,0 -0.298916,0.05978 -0.594924,0.152865 -0.867574,0.289189 -0.121936,0.06097 -0.175763,0.213572 -0.289193,0.289192 -0.17935,0.119568 -0.38559,0.192797 -0.578384,0.289193 -0.192794,0.0964 -0.378251,0.20914 -0.578385,0.289192 -0.28303,0.113212 -0.606181,0.132355 -0.867574,0.289192 -0.233799,0.14028 -0.38559,0.385588 -0.578384,0.578385 -0.0964,0.0964 -0.159861,0.246081 -0.289192,0.289189 -1.316482,0 -0.01654,-0.136326 -0.867574,0.289192 -0.08622,0.04311 -0.221031,-0.06816 -0.289192,0 -0.152419,0.152419 -0.136774,0.425966 -0.289193,0.578385 -0.152418,0.152418 -0.399034,0.169624 -0.578384,0.289192 -0.11343,0.07562 -0.167256,0.228224 -0.289192,0.289192 -0.08622,0.04311 -0.20297,-0.04311 -0.28919,0 -0.121936,0.06097 -0.167259,0.228225 -0.289192,0.28919 -0.08622,0.04311 -0.202973,-0.04311 -0.289192,0 -0.467773,0.233889 -0.432621,0.866799 -0.867577,1.156769 -0.264173,0.176114 -0.701807,0.246848 -0.867574,0.578384 -0.04311,0.08622 0.04311,0.20297 0,0.28919 -0.06097,0.121936 -0.213572,0.175762 -0.289192,0.289192 -0.119566,0.17935 -0.169627,0.399034 -0.289193,0.578384 -0.222453,0.333682 -0.64512,0.533893 -0.867574,0.867574 -0.119567,0.179351 -0.192796,0.385591 -0.289192,0.578385 -0.192794,0.38559 -0.418277,0.756499 -0.578384,1.156769 -0.339053,0.84763 -0.528524,1.755095 -0.867574,2.602725 -0.08006,0.200133 -0.136777,0.425965 -0.289193,0.578384 -0.06816,0.06816 -0.258709,-0.09145 -0.289192,0 -0.09145,0.274352 0.05671,0.583999 0,0.867574 -0.04227,0.211365 -0.236913,0.369268 -0.289192,0.578384 -0.04676,0.18704 0.06097,0.395484 0,0.578385 -0.04311,0.129331 -0.246081,0.159861 -0.289192,0.289192 -0.06096,0.182901 0.06097,0.395481 0,0.578382 -0.04311,0.129331 -0.192794,0.192797 -0.289192,0.289192 -0.0964,0.289192 -0.229407,0.568661 -0.289193,0.867577 -0.03781,0.18905 0.04676,0.391345 0,0.578384 -0.05228,0.20911 -0.221027,0.37389 -0.289189,0.57838 -0.03049,0.0914 0.02339,0.19568 0,0.28919 -0.07393,0.29574 -0.22941,0.56867 -0.289192,0.86758 -0.03781,0.18905 0.03781,0.38933 0,0.57838 -0.05978,0.29892 -0.21526,0.57185 -0.289193,0.86758 -0.06185,0.24741 0,1.15691 0,1.44596 0,0.77118 0,1.54236 0,2.31353 0,1.15677 0,2.31354 0,3.47031 0,0.24216 -0.05498,1.22603 0,1.44595 0.05228,0.20912 0.236914,0.36927 0.289193,0.57839 0.04676,0.18704 -0.04676,0.39134 0,0.57838 0.104558,0.41823 0.442057,0.74779 0.578381,1.15677 0.286959,0.86087 -0.684768,-0.59337 0.289193,0.86757 0.07562,0.11344 0.228227,0.16726 0.289192,0.2892 0.136326,0.27265 0.152865,0.59492 0.289192,0.86757 0.601774,1.20355 -0.01998,-0.30916 0.578384,0.28919 0.152416,0.15242 0.159862,0.40595 0.289193,0.57839 0.322778,0.43037 0.990645,0.929111 1.445958,1.156771 0.08622,0.0431 0.197742,-0.0305 0.289192,0 0.204489,0.0682 0.373894,0.22102 0.578382,0.28918 0.730205,0.24341 -0.301175,-0.58737 0.867577,0.2892 0.218122,0.16359 0.360262,0.41479 0.578384,0.57838 0.17244,0.12933 0.39355,0.17829 0.578382,0.28919 0.298035,0.17882 0.569542,0.39957 0.867577,0.57839 0.184832,0.1109 0.373893,0.22103 0.578382,0.28919 0.182901,0.061 0.442058,-0.13633 0.578384,0 0.06817,0.0682 -0.08622,0.24608 0,0.28919 0.172442,0.0862 0.391345,-0.0468 0.578385,0 0.209113,0.0523 0.378248,0.20914 0.578384,0.28919 0.28303,0.11321 0.594921,0.15287 0.867574,0.28919 0.121933,0.061 0.159861,0.24609 0.289192,0.2892 0.182901,0.061 0.391345,-0.0468 0.578385,0 0.209113,0.0523 0.369268,0.23691 0.578381,0.28919 0.18704,0.0468 0.385591,0 0.578385,0 0.481986,0 0.973333,-0.0945 1.445958,0 0.211365,0.0423 0.385591,0.19279 0.578385,0.28919 0.481986,0 0.963972,0 1.445958,0 0.289193,0 0.578385,0 0.867577,0 0.192794,0 0.391345,-0.0468 0.578382,0 0.209116,0.0523 0.369268,0.23691 0.578384,0.28919 0.18704,0.0468 0.389335,-0.0378 0.578385,0 0.298915,0.0598 0.566888,0.23908 0.867574,0.28919 0.388276,0.0647 1.87493,0 2.313535,0 0.192794,0 0.391345,-0.0468 0.578384,0 0.209114,0.0523 0.369269,0.23692 0.578382,0.28919 0.232791,0.0582 2.225474,0 2.313535,0 1.156769,0 2.313536,0 3.470302,0 1.349563,0 2.699125,0 4.048686,0 0.376571,0 1.445334,0.058 1.73515,0 0.211365,-0.0423 0.369269,-0.23691 0.578385,-0.28919 0.25513,-0.0638 0.909029,0.0826 1.156766,0 0.204491,-0.0682 0.373896,-0.22102 0.578384,-0.28919 0.09145,-0.0305 0.192794,0 0.289193,0 0.192794,0 0.385588,0 0.578384,0 0.481986,0 0.963972,0 1.445959,0 1.927944,0 3.855889,0 5.783839,0 0.67478,0 1.34956,0 2.02434,0 0.28919,0 0.58702,0.0701 0.86757,0 0.13226,-0.0331 0.15694,-0.25613 0.2892,-0.28919 0.2965,-0.0741 1.43115,0.10133 1.73515,0 0.12933,-0.0431 0.16726,-0.22823 0.28919,-0.28919 0.0862,-0.0431 0.19279,0 0.28919,0 0.1928,0 0.39134,0.0468 0.57838,0 0.20912,-0.0523 0.3739,-0.22103 0.57838,-0.28919 0.0914,-0.0305 0.19775,0.0305 0.2892,0 0.20448,-0.0682 0.39903,-0.16963 0.57838,-0.2892 0.11343,-0.0756 0.15694,-0.25612 0.28919,-0.28919 0.28056,-0.0701 0.58702,0.0701 0.86758,0 0.13225,-0.0331 0.19279,-0.19279 0.28919,-0.28919 0.19279,-0.19279 0.36026,-0.41479 0.57838,-0.57838 0.17244,-0.12933 0.40595,-0.15986 0.57839,-0.28919 0.5453,-0.40898 0.913686,-1.02015 1.445956,-1.44597 0.16831,-0.13465 0.39903,-0.16962 0.57838,-0.28918 0.26443,-0.17629 0.31395,-0.4021 0.57838,-0.57839 0.17935,-0.119561 0.42597,-0.136771 0.57839,-0.289191 0.30483,-0.30484 0.27354,-0.85193 0.57838,-1.15677 0.0682,-0.0682 0.22103,0.0682 0.28919,0 0.15242,-0.15242 0.22103,-0.37389 0.28919,-0.57838 0.0305,-0.0915 -0.0862,-0.24608 0,-0.28919 0.17244,-0.0862 0.44206,0.13632 0.57839,0 0.13632,-0.13633 -0.061,-0.39549 0,-0.57839 0.0862,-0.25866 0.45645,-0.33451 0.57838,-0.57838 0.0431,-0.0862 -0.0431,-0.20297 0,-0.28919 0.12194,-0.24387 0.45645,-0.33452 0.57838,-0.57839 0.0431,-0.0862 -0.0431,-0.20297 0,-0.28919 0.60178,-1.20355 -0.02,0.30916 0.57839,-0.28919 0.0682,-0.0682 -0.0305,-0.19774 0,-0.28919 0.0682,-0.20449 0.19279,-0.38559 0.28919,-0.57839 0.0964,-0.19279 0.15986,-0.40594 0.28919,-0.57838 0.16359,-0.21812 0.45645,-0.33452 0.57838,-0.57838 0.0862,-0.17244 -0.061,-0.39549 0,-0.57839 0.0431,-0.12933 0.21358,-0.17576 0.2892,-0.28919 0.11956,-0.17935 0.16962,-0.39903 0.28919,-0.57838 0.0756,-0.11343 0.19279,-0.1928 0.28919,-0.28919 0.0964,0 0.23572,0.0802 0.28919,0 0.16909,-0.25364 0.15287,-0.59493 0.28919,-0.86758 0.22146,-0.44292 0.51535,-0.22615 0.86758,-0.57838 0.0682,-0.0682 -0.0682,-0.22103 0,-0.28919 0.0682,-0.0682 0.22103,0.0682 0.28919,0 0.0682,-0.0682 -0.0682,-0.22103 0,-0.2892 0.0682,-0.0682 0.20297,0.0431 0.28919,0 0.15445,-0.0772 0.71533,-0.71532 0.86758,-0.86757 0.95913,-0.95913 -0.27265,0.13632 0.57838,-0.28919 0.12194,-0.061 0.16726,-0.22823 0.2892,-0.2892 0.17243,-0.0862 0.44205,0.13633 0.57838,0 0.0682,-0.0682 -0.0682,-0.22102 0,-0.28919 0.15242,-0.15242 0.39903,-0.16962 0.57838,-0.28919 0.2024,-0.13493 1.37331,-1.33698 1.44596,-1.44596 0.0535,-0.0802 -0.0431,-0.20297 0,-0.28919 0.061,-0.12194 0.24608,-0.15986 0.28919,-0.28919 0.061,-0.1829 0,-0.38559 0,-0.57839 0,-0.0964 0.0431,-0.20297 0,-0.28919 -0.061,-0.12193 -0.21357,-0.17576 -0.28919,-0.28919 -0.17611,-0.26417 -0.24685,-0.70181 -0.57838,-0.86758 -0.0862,-0.0431 -0.22103,0.0682 -0.28919,0 -0.0682,-0.0682 0.0862,-0.24608 0,-0.28919 -0.17245,-0.0862 -0.39549,0.061 -0.57839,0 -0.25866,-0.0862 -0.35152,-0.42714 -0.57838,-0.57838 -0.1928,-0.0964 -0.38559,-0.192796 -0.57838,-0.289192 -0.0964,0 -0.20298,0.04311 -0.2892,0 -0.12193,-0.06097 -0.17576,-0.213572 -0.28919,-0.289192 -0.43419,-0.28946 -0.72258,-0.288925 -1.15677,-0.578385 -0.11343,-0.07562 -0.15986,-0.246081 -0.28919,-0.289192 -0.1829,-0.06097 -0.39548,0.06097 -0.57838,0 -0.12933,-0.04311 -0.16726,-0.228224 -0.28919,-0.289192 -0.0862,-0.04311 -0.20297,0.04311 -0.2892,0 -1.32351,-0.661757 1.22716,0.119862 -0.86757,-0.578382 -0.1829,-0.06097 -0.40594,0.08622 -0.57839,0 -0.12193,-0.06097 -0.17576,-0.213572 -0.28919,-0.289192 -0.75806,-0.505378 -0.50537,-0.108093 -1.44596,-0.578385 -0.12193,-0.06097 -0.15551,-0.262456 -0.28919,-0.289192 -0.3781,-0.07562 -0.77866,0.07562 -1.15676,0 -0.13369,-0.02674 -0.15694,-0.256127 -0.2892,-0.289192 -0.28055,-0.07014 -0.58232,0.04754 -0.86757,0 -0.30069,-0.05012 -0.56866,-0.229407 -0.86758,-0.28919 -0.18905,-0.03781 -0.38559,0 -0.57838,0 -0.1928,-0.0964 -0.3739,-0.22103 -0.57838,-0.289192 -0.0915,-0.03048 -0.20298,0.04311 -0.2892,0 -0.12193,-0.06097 -0.15693,-0.25613 -0.28919,-0.289192 -0.280556,-0.07014 -0.582316,0.04754 -0.867566,0 -2.19142,-0.365236 -0.11783,-0.05891 -1.15677,-0.578384 -0.18789,-0.09394 -1.54726,0.09395 -1.73515,0 -0.12193,-0.06097 -0.16726,-0.228225 -0.28919,-0.289193 -0.0862,-0.04311 -0.1928,0 -0.2892,0 -0.0964,0 -0.19279,0 -0.28919,0 -0.18997,0 -1.08876,0.034 -1.15676,0 -0.0862,-0.04311 0.0862,-0.246081 0,-0.289192 -0.17244,-0.08622 -0.39548,0.06097 -0.57839,0 -0.12933,-0.04311 -0.19279,-0.192794 -0.28919,-0.289189 -0.38559,0 -0.77118,0 -1.15676,0 z"
       id="path226" />
    <path
       id="path228"
       style="fill:none;fill-rule:evenodd;stroke:#000000;stroke-width:0.264583px;stroke-linecap:butt;stroke-linejoin:miter;stroke-opacity:1"
       d="m 126.14782,52.314719 c -0.0228,0.0032 -0.0429,0.0119 -0.0599,0.02894 -0.0682,0.06816 0.0862,0.24628 0,0.289388 -0.21298,0.106492 -1.71508,-0.1032 -2.02468,0 -0.12934,0.04311 -0.15954,0.245763 -0.28887,0.288871 -0.1829,0.06097 -0.39174,-0.04676 -0.57878,0 -0.20912,0.05228 -0.36915,0.237109 -0.57826,0.289388 -0.18704,0.04676 -0.39536,-0.06097 -0.57826,0 -0.25866,0.08622 -0.31375,0.512132 -0.57826,0.578259 -0.28056,0.07014 -0.58709,-0.07014 -0.86765,0 -0.26451,0.06613 -0.3349,0.456324 -0.57877,0.57826 -0.23135,0.11567 -0.63578,-0.115679 -0.86713,0 -0.12194,0.06096 -0.19299,0.192993 -0.28939,0.289388 l -0.86765,0.867647 c -0.1928,0.192794 -0.3514,0.427018 -0.57826,0.578259 -0.17935,0.119566 -0.45869,0.11004 -0.57826,0.289388 -0.10694,0.160417 0.061,0.395363 0,0.578259 -0.0431,0.129331 -0.19298,0.192994 -0.28938,0.289388 -0.0964,0.0964 -0.16746,0.227904 -0.28939,0.288872 -0.0862,0.04311 -0.22071,-0.06817 -0.28887,0 -0.13633,0.136326 0.0862,0.406334 0,0.578776 -0.061,0.121933 -0.22842,0.166938 -0.28939,0.288871 -0.0862,0.172442 0.13633,0.441933 0,0.578259 -0.0682,0.06817 -0.24576,-0.08622 -0.28887,0 -0.0862,0.172442 0,0.385987 0,0.578776 v 0.57826 2.024165 c 0,0.221068 -0.0407,1.943321 0,2.024683 0.061,0.121936 0.22791,0.166937 0.28887,0.288871 0.0909,0.181763 -0.0909,0.975272 0,1.157036 0.061,0.121933 0.22842,0.166938 0.28939,0.288871 0.0431,0.08622 -0.0305,0.197938 0,0.289388 0.0682,0.204492 0.23659,0.369143 0.28887,0.578259 0.0468,0.187039 0,0.385464 0,0.57826 v 2.024682 c 0,0.0964 -0.0305,0.19742 0,0.288871 0.0682,0.204491 0.22123,0.374293 0.28939,0.578776 0.0637,0.19127 0,1.450692 0,1.734778 v 0.289388 c 0,0.0964 0.0431,0.203169 0,0.289388 -0.12194,0.243867 -0.45633,0.334391 -0.57826,0.57826 -0.0431,0.08622 0.0682,0.220709 0,0.288871 -0.0682,0.06816 -0.22122,-0.06816 -0.28939,0 -0.13632,0.136327 0.061,0.395875 0,0.578776 -0.0682,0.204488 -0.13645,0.425841 -0.28887,0.578259 -0.15242,0.152416 -0.42636,0.136969 -0.57878,0.289388 -0.0682,0.06816 0.0431,0.202656 0,0.288871 -0.66176,1.323515 0.11998,-1.22708 -0.57826,0.867648 -0.0305,0.09145 0.0535,0.20918 0,0.289388 -0.15125,0.226859 -0.42702,0.351398 -0.57826,0.578259 -0.0535,0.08021 0.0682,0.220709 0,0.288871 -0.0682,0.06816 -0.22123,-0.06816 -0.28939,0 -0.0682,0.06816 0.0431,0.203168 0,0.289388 -0.60173,1.203542 0.0201,-0.308954 -0.57825,0.289388 -0.0682,0.06816 0.0431,0.202652 0,0.288872 -0.31971,0.639413 -0.17936,0.08994 -0.57826,0.289388 -0.12193,0.06096 -0.22842,0.167452 -0.28939,0.289388 -0.0431,0.08622 0.0862,0.245762 0,0.288871 -0.17244,0.08622 -0.40582,-0.08622 -0.57826,0 -0.0862,0.04311 0.0431,0.203168 0,0.289388 -0.061,0.121936 -0.19299,0.192476 -0.28939,0.288871 -0.20805,0.208048 -0.28007,0.287283 -0.32556,0.338481 0.0804,-0.101197 0.16471,-0.257809 -0.2527,-0.04909 -0.22205,0.11103 -0.62659,0.66308 -0.92966,0.96945 0.67501,0.501433 0.87183,0.673643 1.29605,1.289844 0.0397,0.0118 0.0796,0.02299 0.11937,0.03462 0.43369,-0.195189 0.92072,-0.43286 1.37718,-0.428914 0.13747,0.0012 0.27204,0.02414 0.40152,0.077 1.12298,0.458433 1.15925,1.107599 1.06144,1.810219 0.002,2e-5 0.004,-2e-5 0.006,0 0.25689,7.9e-4 0.46851,0.0239 0.57102,0.0868 0.54409,0.33413 0.88796,0.91809 1.3317,1.37718 1.19931,1.24079 -0.90527,0.66742 -2.26549,0.36018 0.009,0.19775 -0.004,0.41361 -0.045,0.64751 0.2444,0.1468 0.48544,0.29783 0.69143,0.49247 0.0942,0.089 -0.0692,0.0468 -0.34623,-0.0486 -0.0297,0.12179 -0.18179,0.27101 -0.50385,0.45733 -0.019,0.011 -0.0379,0.0221 -0.0568,0.0331 -0.25576,1.11177 -0.50357,2.00812 -1.82314,1.233 -0.093,0.0261 -0.203,0.0475 -0.33228,0.063 -0.28923,0.0348 -0.57842,0.0696 -0.86765,0.10439 -0.008,-0.005 -0.0153,-0.009 -0.0233,-0.0134 -0.25415,0.95759 -0.69437,1.16265 -1.50481,1.53169 -0.1086,0.37748 -0.30523,0.71229 -0.67076,0.99219 -10e-4,0.73692 -0.0927,1.52375 -0.4868,1.83606 0.0324,0.041 0.0661,0.0808 0.10853,0.10904 0.17935,0.11957 0.4058,0.16006 0.57825,0.28939 0.35634,0.26725 0.78888,0.91108 1.15704,1.15652 0.17935,0.11957 0.40582,0.16005 0.57826,0.28938 0.32718,0.24539 0.57846,0.57846 0.86765,0.86765 0.0964,0.0964 0.24576,0.15954 0.28887,0.28887 0.061,0.1829 -0.10694,0.41784 0,0.57826 0.11957,0.17935 0.42635,0.13697 0.57877,0.28939 0.15242,0.15242 0.16931,0.39891 0.28888,0.57826 0.0756,0.11343 0.22841,0.16746 0.28938,0.28939 0.0431,0.0862 -0.0431,0.20265 0,0.28887 0.061,0.12194 0.19248,0.19299 0.28887,0.28939 0.1928,0.19279 0.42754,0.3514 0.57878,0.57826 0.0535,0.0802 -0.0431,0.20316 0,0.28938 0.12193,0.24387 0.42702,0.35141 0.57826,0.57826 0.97396,1.460951 0.002,0.007 0.28887,0.867651 0.69825,2.09474 -0.083,-0.455871 0.57878,0.86765 0.0431,0.0862 -0.0305,0.19794 0,0.28939 0.13633,0.40898 0.44193,0.74757 0.57826,1.15651 0.30905,0.92714 -0.30905,-0.34889 0,0.57826 0.0682,0.20449 0.20933,0.37865 0.28938,0.57878 0.11321,0.28304 0.15256,0.59448 0.28888,0.86713 0.061,0.12193 0.21376,0.17596 0.28938,0.28939 0.37541,0.56312 0.28887,0.53098 0.28887,1.15703 v 0.28888 c 0,0.0964 -0.0431,0.20316 0,0.28938 0.061,0.12194 0.24628,0.15954 0.28939,0.28887 0.1446,0.43379 -0.1446,1.01212 0,1.44591 0.0431,0.12933 0.24628,0.16005 0.28939,0.28939 0.0565,0.16951 -0.061,1.06558 0,1.15703 0.11957,0.17935 0.42585,0.13647 0.57826,0.28888 2.7e-4,2.7e-4 -5.2e-4,0.86633 0,0.86764 0.0431,0.12933 0.22842,0.16746 0.28939,0.28939 0.0431,0.0862 0,0.19247 0,0.28887 0.0964,0.0964 0.2279,0.16746 0.28887,0.28939 0.0862,0.17244 -0.061,0.39536 0,0.57826 0.0682,0.20449 0.19299,0.38547 0.28939,0.57826 0.0964,0.19279 0.15954,0.40633 0.28887,0.57877 0.16359,0.21812 0.42752,0.3514 0.57877,0.57826 0.0535,0.0802 -0.0535,0.20867 0,0.28888 0.15124,0.22686 0.38546,0.38598 0.57826,0.57877 0.0964,0.0964 0.22791,0.16693 0.28888,0.28887 0.0431,0.0862 -0.0682,0.22122 0,0.28939 0.0682,0.0682 0.20316,-0.0431 0.28938,0 0.12194,0.061 0.193,0.19299 0.28939,0.28939 0.1928,0.19279 0.38546,0.38547 0.57826,0.57826 0.0964,0.0964 0.17596,0.21325 0.28939,0.28887 1.30256,0.86838 -0.14605,-0.2896 1.15652,0.57878 0.11343,0.0756 0.16746,0.2279 0.28939,0.28887 0.0862,0.0431 0.20265,-0.0431 0.28887,0 0.62175,0.31087 1.11355,0.84616 1.73529,1.15703 2.79298,1.39648 -0.53937,-0.37289 1.44591,0.28887 0.12933,0.0431 0.16746,0.22842 0.28939,0.28939 0.0862,0.0431 0.19742,-0.0305 0.28887,0 2.09472,0.69825 -0.45586,-0.0835 0.86764,0.57826 0.0862,0.0431 0.193,0 0.28939,0 0.19279,0 0.39122,-0.0468 0.57826,0 0.41822,0.10455 0.73881,0.47422 1.15704,0.57878 0.18704,0.0468 0.39535,-0.061 0.57826,0 0.12933,0.0431 0.15954,0.24576 0.28887,0.28887 0.23154,0.0772 0.48416,0.0269 0.73122,0.008 -0.0796,2.4e-4 -0.13962,-0.002 -0.15245,-0.008 -0.63942,-0.31971 -0.0899,-0.17937 -0.28938,-0.57826 -0.061,-0.12194 -0.21377,-0.17596 -0.28939,-0.28939 -0.97396,-1.46094 -0.002,-0.007 -0.28887,-0.86765 -0.69825,-2.0947 0.0835,0.45638 -0.57826,-0.86713 -0.12933,-0.25866 0.12933,-0.60902 0,-0.86764 -0.29917,0 -0.4001,0.068 -0.57878,-0.28939 -0.0431,-0.0862 0.0305,-0.19794 0,-0.28939 -0.0682,-0.20448 -0.23659,-0.36914 -0.28887,-0.57826 -0.0468,-0.18704 0.061,-0.39536 0,-0.57826 -0.0431,-0.12933 -0.24629,-0.16006 -0.28939,-0.28939 -0.0915,-0.27436 0,-0.57845 0,-0.86764 v -2.02417 -2.60243 c 0,-0.15122 -0.038,-1.081 0,-1.15703 0.061,-0.12194 0.22842,-0.16745 0.28939,-0.28939 0.0527,-0.1054 0,-1.27928 0,-1.44591 v -2.60242 -1.7353 c 0,-0.2892 0.12933,-0.60898 0,-0.86764 -0.0431,-0.0862 -0.22123,0.0682 -0.28939,0 -0.13633,-0.13633 0.061,-0.39536 0,-0.57826 -0.13633,-0.40898 -0.44193,-0.74806 -0.57826,-1.15704 -0.0305,-0.0914 0.0431,-0.202651 0,-0.288871 -0.061,-0.12194 -0.22842,-0.16745 -0.28939,-0.28939 -0.0431,-0.0862 0,-0.19248 0,-0.28887 -0.0964,-0.0964 -0.21325,-0.17596 -0.28887,-0.28939 -0.7104,-0.10311 -0.1203,-0.61401 -0.28939,-0.86764 -0.15122,-0.22686 -0.42701,-0.3514 -0.57825,-0.57826 -0.0535,-0.0802 0.0305,-0.19794 0,-0.28939 -0.0682,-0.20449 -0.22123,-0.37377 -0.28939,-0.57826 -0.061,-0.1829 0.13633,-0.44193 0,-0.57826 -0.0682,-0.0682 -0.24576,0.0862 -0.28887,0 -0.0862,-0.17244 0.0862,-0.40583 0,-0.57826 -0.0431,-0.0862 -0.22123,0.0682 -0.28939,0 -0.15242,-0.15242 -0.16983,-0.39943 -0.28939,-0.57877 -0.0756,-0.11343 -0.2279,-0.16694 -0.28887,-0.28888 -0.0431,-0.0862 0.0305,-0.19793 0,-0.28938 -0.0682,-0.20449 -0.23711,-0.36915 -0.28939,-0.57826 -0.0468,-0.18704 0.061,-0.39536 0,-0.57826 0.10809,-0.63001 -0.48189,-0.0966 -0.57826,-0.28939 -0.0862,-0.17244 0,-0.38546 0,-0.57826 0,-0.0964 0.0682,-0.22123 0,-0.28939 -0.0682,-0.0682 -0.22123,0.0682 -0.28939,0 -0.0791,-0.0791 0.0784,-0.99964 0,-1.15652 -0.061,-0.12193 -0.2279,-0.16745 -0.28887,-0.28938 -0.0764,-0.15292 0.0352,-1.01563 0,-1.15652 -0.0523,-0.20911 -0.22122,-0.37429 -0.28939,-0.57878 -0.0305,-0.0914 0.0431,-0.20265 0,-0.28887 -0.061,-0.12194 -0.24627,-0.16007 -0.28938,-0.28939 -0.061,-0.1829 0,-0.38546 0,-0.57826 0,-0.48198 0.0945,-0.97327 0,-1.4459 -0.0423,-0.21136 -0.22071,-0.37429 -0.28887,-0.57878 -0.0305,-0.0914 0,-0.19247 0,-0.28887 v -0.57826 -2.31355 c 0,-0.204995 0.0374,-1.660527 0,-1.735296 -0.061,-0.121935 -0.24628,-0.160057 -0.28939,-0.289388 -0.061,-0.1829 0,-0.385465 0,-0.578259 v -1.156519 -2.313553 c 0,-0.481986 -0.0682,-0.96877 0,-1.445907 0.0305,-0.213387 0.23711,-0.36966 0.28939,-0.578776 0.0468,-0.187039 -0.0468,-0.391224 0,-0.578259 0.20966,-0.838723 0.22549,-0.338507 0.57825,-0.867648 0.97396,-1.460933 0.002,-0.0068 0.28939,-0.867647 0.0682,-0.204489 0.17796,-0.393423 0.28887,-0.578259 0.17882,-0.298034 0.36972,-0.589595 0.57826,-0.867648 0.0818,-0.109057 0.24628,-0.15954 0.28939,-0.288871 0,-0.355355 -0.005,-0.532605 -0.01,-0.646472 0.0236,0.178387 0.0975,0.384021 0.29921,-0.221175 0.061,-0.182901 -0.061,-0.395875 0,-0.578776 0.0522,-0.156522 0.74099,-0.67714 0.86765,-0.867131 0.11957,-0.179344 0.22071,-0.374288 0.28887,-0.578776 0.0305,-0.09145 -0.0682,-0.220709 0,-0.288871 0.15242,-0.152419 0.4587,-0.11004 0.57826,-0.289388 0.57839,-0.867572 -0.28919,-0.289267 0,-0.867647 0.061,-0.121933 0.22841,-0.166939 0.28938,-0.288872 0.0431,-0.08622 -0.0305,-0.197937 0,-0.289388 0.13632,-0.408975 0.4737,-0.738289 0.57826,-1.156518 0.0352,-0.14089 -0.0765,-1.004123 0,-1.157035 0.061,-0.121933 0.24628,-0.160061 0.28939,-0.289388 0.0441,-0.132273 -0.0643,-1.027837 0,-1.156519 0.061,-0.121936 0.24576,-0.160057 0.28887,-0.289388 0.061,-0.182901 0,-0.385469 0,-0.578259 v -0.57826 -1.445906 c 0,-0.0964 -0.0305,-0.197938 0,-0.289388 0.0682,-0.204489 0.23711,-0.36915 0.28939,-0.578259 0.0468,-0.187039 0,-0.385466 0,-0.57826 v -2.313554 c 0,-0.289188 -0.0702,-0.58709 0,-0.867647 0.12618,-0.504738 1.00662,-1.534728 1.15704,-1.735295 h -3.1812 -0.28939 c -0.0723,0 -0.1606,-0.03852 -0.22893,-0.02894 z m -16.73799,28.592053 c -0.006,0.0051 -0.0119,0.0077 -0.0181,0.0124 0.0587,0.102977 0.12074,0.212805 0.20722,0.365353 0.006,8.13e-4 0.0127,0.0017 0.0191,0.0026 -0.0405,-0.09735 -0.13181,-0.285344 -0.20825,-0.380339 z m -1.32757,9.618017 c 0.12124,-0.0982 0.0382,-0.0306 -0.0961,0.078 0.0156,-0.0126 0.0844,-0.0685 0.0961,-0.078 z m -0.66042,0.67696 c -0.0644,0.0289 -0.13526,0.0557 -0.20619,0.0827 0.0362,0.10491 0.11683,0.0413 0.20619,-0.0827 z m 0.045,0.11111 c -0.0125,0.0276 -0.0256,0.0549 -0.0377,0.0827 -0.0118,0.0271 -0.0531,0.10514 -0.0367,0.0806 0.0591,-0.0888 0.0701,-0.13555 0.0755,-0.16019 -4.1e-4,-10e-4 -7.5e-4,-0.002 -0.001,-0.003 z m 24.59385,29.564081 c -0.0612,5e-4 -0.14445,0.003 -0.23203,0.006 h 0.0429 c 0.0964,0 0.28938,0.0964 0.28938,0 0,-0.004 -0.0391,-0.006 -0.10025,-0.006 z m -0.23203,0.006 h -0.24649 c -0.0448,0 -0.0901,0.005 -0.13539,0.008 0.10836,-3.7e-4 0.2477,-0.004 0.38188,-0.008 z" />
    <path
       style="fill:none;fill-rule:evenodd;stroke:#000000;stroke-width:0.264583px;stroke-linecap:butt;stroke-linejoin:miter;stroke-opacity:1"
       d="m 71.141189,62.176239 c 15.905548,23.13535 9.543327,42.511201 9.543327,42.511201"
       id="path394" />
    <path
       style="fill:none;fill-rule:evenodd;stroke:#000000;stroke-width:0.264583px;stroke-linecap:butt;stroke-linejoin:miter;stroke-opacity:1"
       d="m 43.378772,88.203509 c 25.159689,8.96494 28.340798,1.44595 28.340798,1.44595 L 71.430378,75.479063"
       id="path396" />
    <path
       style="fill:none;fill-rule:evenodd;stroke:#000000;stroke-width:0.264583px;stroke-linecap:butt;stroke-linejoin:miter;stroke-opacity:1"
       d="m 68.538461,76.34664 c 0.385588,-0.0964 0.801272,-0.111445 1.156766,-0.289192 0.08622,-0.04311 -0.06816,-0.221028 0,-0.289192 0.06816,-0.06816 0.192797,0 0.289193,0 0.192794,0 0.405942,0.08622 0.578384,0 0.08622,-0.04311 -0.06817,-0.221028 0,-0.289193 0.02807,-0.02807 1.335757,0 1.445959,0 0.771178,0 -0.0964,0.0964 0.289192,-0.289192 0.07913,-0.07913 0.999884,0.07844 1.156766,0 0.121936,-0.06097 0.167259,-0.228224 0.289192,-0.289189 0.851038,-0.425519 -0.380743,0.669935 0.578385,-0.289193"
       id="path398" />
    <path
       id="path400"
       style="fill:none;fill-rule:evenodd;stroke:#000000;stroke-width:0.264583px;stroke-linecap:butt;stroke-linejoin:miter;stroke-opacity:1"
       d="m 88.754244,104.55908 c -0.2425,0.10495 -0.52421,0.15559 -0.84284,0.1328 -0.456905,0.006 -0.920637,0.006 -1.367877,-0.0434 -0.876306,0.0666 -2.066404,0.29493 -2.946073,0.0522 -1.386882,12.59569 0.774303,23.4333 10.96832,18.20561 7.794446,-3.99716 -0.15534,-13.1018 -5.81153,-18.3472 z" />
    <path
       id="path400-4"
       style="fill:none;fill-rule:evenodd;stroke:#000000;stroke-width:0.264583px;stroke-linecap:butt;stroke-linejoin:miter;stroke-opacity:1"
       d="m 68.738929,105.23914 c -0.440909,-0.004 -1.177805,0.14753 -1.792655,0.13797 -1.001729,11.83115 1.411855,21.46262 11.135754,16.476 6.982135,-3.58058 1.331548,-11.25618 -3.98787,-16.58813 -0.02032,2.9e-4 -0.04036,0.001 -0.06098,0.001 -0.577952,-1.1e-4 -1.155794,-5.7e-4 -1.733744,0 -0.578392,-1.3e-4 -1.156914,-0.004 -1.735295,0 -0.608699,0.007 -1.217035,0.004 -1.825212,-0.0269 z" />
    <ellipse
       style="fill:#2b2200;fill-opacity:1;fill-rule:evenodd;stroke-width:0.264583"
       id="path742"
       cx="55.814018"
       cy="77.937195"
       rx="4.9162612"
       ry="5.350049" />
    <ellipse
       style="fill:#ffffff;fill-opacity:1;fill-rule:evenodd;stroke-width:0.264583"
       id="path796"
       cx="54.368057"
       cy="77.35881"
       rx="2.3135345"
       ry="2.1689386" />
    <path
       style="fill:none;fill-rule:evenodd;stroke:#000000;stroke-width:0.264583px;stroke-linecap:butt;stroke-linejoin:miter;stroke-opacity:1"
       d="m 73.165529,61.88705 c 5.764461,-2.882231 0.371888,-0.322271 3.181112,-1.445961 0.200133,-0.08005 0.369268,-0.236913 0.578381,-0.289192 0.18704,-0.04676 0.391348,0.04676 0.578385,0 0.596974,-0.149241 0.745633,-0.578382 1.445958,-0.578382 1.735151,0 3.470304,0 5.205455,0 0.481986,0 0.963972,0 1.445959,0 0.289192,0 0.593222,-0.09145 0.867574,0 0.258662,0.08622 0.334515,0.456448 0.578384,0.578382 0.114663,0.05733 0.808457,-0.05912 0.867577,0 0.0682,0.06816 -0.06817,0.22103 0,0.289192 0.0682,0.06816 0.19279,0 0.28919,0 0.1928,0 0.40594,-0.08622 0.57838,0 0.0862,0.04311 -0.0682,0.22103 0,0.289192 0.0682,0.06817 0.20298,-0.04311 0.2892,0 0.12193,0.06097 0.16726,0.228224 0.28919,0.289192 0.15688,0.07844 1.07764,-0.07913 1.15676,0 0.0682,0.06816 -0.0431,0.202973 0,0.289192 0.30794,0.615866 0.99982,0.132239 1.15677,0.289193 0.0682,0.06816 -0.0431,0.202969 0,0.289192 0.3103,0.620596 0.31581,0.01331 0.86758,0.289189 0.0862,0.04311 -0.0682,0.221031 0,0.289193 0.0682,0.06816 0.22103,-0.06816 0.28919,0 0.0682,0.06816 -0.0682,0.22103 0,0.289192 0.13633,0.136326 0.40594,-0.08622 0.57838,0 1.20355,0.601774 -0.30915,-0.01998 0.2892,0.578384 0.0682,0.06816 0.22102,-0.06816 0.28919,0 0.19242,0.192424 -0.19243,0.385959 0,0.578382 0.0682,0.06816 0.38559,0 0.28919,0 -1.34956,0 -2.69912,0 -4.04869,0 -0.0964,0 -0.19279,0 -0.28919,0 -0.0964,0 -0.22103,-0.06816 -0.28919,0 -0.0682,0.06816 0.0682,0.22103 0,0.289192 -0.0953,0.09533 -0.94749,-0.06976 -1.15677,0 -0.25866,0.08622 -0.31972,0.492165 -0.57838,0.578385 -1.316485,0 -0.0165,-0.136327 -0.867577,0.289192 -0.17063,0.08531 -0.66866,-0.0663 -0.867574,0 -1.165214,0.388403 -0.116104,0.491839 -0.867577,0.867574 -0.172439,0.08622 -0.442057,-0.136326 -0.578384,0 -0.598347,0.59835 0.914355,-0.02339 -0.289192,0.578385 -0.363776,0.181887 -0.578382,-0.415335 -0.578382,0.289192"
       id="path902" />
    <ellipse
       style="fill:#ffe6d5;fill-opacity:1;fill-rule:evenodd;stroke:#808080;stroke-width:0.264583"
       id="path915"
       cx="28.485394"
       cy="70.418205"
       rx="7.0851998"
       ry="6.2176242" />
    <ellipse
       style="fill:#ffe6d5;fill-opacity:1;fill-rule:evenodd;stroke:#808080;stroke-width:0.264583"
       id="path915-0"
       cx="36.438168"
       cy="58.416748"
       rx="7.0851998"
       ry="6.2176242" />
    <ellipse
       style="fill:#ffe6d5;fill-opacity:1;fill-rule:evenodd;stroke:#808080;stroke-width:0.264583"
       id="path915-3"
       cx="28.051605"
       cy="44.535542"
       rx="7.0851998"
       ry="6.2176242" />
    <ellipse
       style="fill:#ffe6d5;fill-opacity:1;fill-rule:evenodd;stroke:#808080;stroke-width:0.264583"
       id="path915-32"
       cx="36.72736"
       cy="37.016552"
       rx="7.0851998"
       ry="6.2176242" />
    <ellipse
       style="fill:#ffe6d5;fill-opacity:1;fill-rule:evenodd;stroke:#808080;stroke-width:0.264583"
       id="path915-5"
       cx="22.846153"
       cy="26.89484"
       rx="7.0851998"
       ry="6.2176242" />
    <path
       style="fill:url(#linearGradient1528);fill-opacity:1;fill-rule:evenodd;stroke:#808080;stroke-width:0.289192"
       d="m 81.277103,103.43161 c 0.207764,-0.80095 0.531013,-2.9933 0.718333,-4.871887 1.086699,-10.898264 -2.3295,-23.675784 -9.17638,-34.322162 l -1.278112,-1.987365 0.812292,0.161208 c 0.446763,0.08866 1.462974,0.302514 2.258253,0.475223 0.795277,0.172707 1.707267,0.362 2.026643,0.420651 0.763836,0.140274 2.575795,1.069485 5.850591,3.000308 3.035064,1.789478 5.386406,4.110697 7.862546,7.76182 1.506884,2.221933 1.630259,2.328238 3.098162,2.669513 0.84083,0.195485 2.184254,0.43306 2.985389,0.527942 0.801137,0.09488 1.456611,0.270854 1.456611,0.391049 0,0.120192 0.48801,0.285961 1.084468,0.368374 1.524411,0.210627 5.309021,1.051417 6.000731,1.333121 1.46262,0.595673 2.35183,0.978136 2.79936,1.204056 4.37787,2.209987 5.76758,3.02451 6.14616,3.602302 0.58529,0.893254 0.57179,1.001228 -0.12517,1.001228 -0.41216,0 -0.57838,0.192794 -0.57838,0.670827 0,0.870723 -1.14092,1.848464 -2.44172,2.092494 -0.56572,0.10613 -1.02859,0.328608 -1.02859,0.494396 0,0.318965 -2.27401,2.526119 -2.60264,2.526119 -0.10608,0 -0.19553,0.357873 -0.19877,0.795277 -0.003,0.467723 -0.61888,1.715638 -1.49416,3.029823 -0.81854,1.229 -1.48826,2.298139 -1.48826,2.375863 0,0.07772 -0.35788,0.529074 -0.79528,1.003001 -0.4374,0.473925 -0.94167,1.031492 -1.12059,1.239033 -0.17892,0.207545 -1.28508,1.166866 -2.458127,2.131826 -1.549855,1.27492 -2.654797,1.9227 -4.04251,2.36994 -2.145263,0.69138 -6.162699,1.15559 -6.418522,0.74166 -0.181311,-0.29336 -1.572742,-0.28372 -5.590175,0.0387 l -2.639904,0.2119 z"
       id="path1520" />
    <path
       style="fill:url(#linearGradient1780);fill-opacity:1;fill-rule:evenodd;stroke:#808080;stroke-width:0.289192"
       d="m 74.322297,105.25063 c -0.159057,-0.0628 -2.82685,-0.17492 -5.928431,-0.24923 -3.101583,-0.0743 -6.680332,-0.27698 -7.952777,-0.45037 -1.272442,-0.17339 -2.866311,-0.3564 -3.541924,-0.40669 -1.660941,-0.12363 -5.305761,-1.63615 -6.997462,-2.9038 -0.547833,-0.41051 -1.241253,-0.74638 -1.540936,-0.74638 -0.831233,0 -2.762821,-2.134102 -3.606879,-3.98504 -0.620734,-1.361205 -0.776449,-2.201217 -0.879126,-4.742497 l -0.12478,-3.088296 2.649299,0.851968 c 6.889448,2.215526 12.136935,3.224337 16.78913,3.22765 3.944633,0.0029 6.603622,-0.688097 7.914664,-2.05653 l 0.806934,-0.842258 -0.09522,-7.103174 c -0.09249,-6.899629 -0.07865,-7.107621 0.483163,-7.258396 0.318111,-0.08537 0.86351,-0.156999 1.211998,-0.159171 0.647872,-0.004 1.153605,-0.482063 0.840867,-0.794803 -0.09569,-0.09569 -0.4666,-0.03455 -0.824238,0.135885 -0.357634,0.170431 -1.556366,0.519332 -2.663848,0.775337 -2.186051,0.505325 -3.11032,1.0364 -1.803728,1.0364 0.42945,0 0.780819,-0.151826 0.780819,-0.337389 0,-0.185566 0.08563,-0.251764 0.190286,-0.147106 0.104656,0.104656 0.368073,0.04273 0.585372,-0.137607 0.217297,-0.180342 0.449392,-0.273587 0.515766,-0.207216 0.211566,0.211566 0.236998,14.053944 0.02646,14.394624 -0.420346,0.680135 -3.090233,1.762395 -5.128347,2.078821 -3.772263,0.585658 -9.579951,-0.219559 -16.771033,-2.325254 -5.660913,-1.657628 -5.446352,-1.546116 -5.442341,-2.828512 0.0037,-1.176631 0.811792,-4.646499 1.559208,-6.694929 0.253947,-0.695981 0.461722,-1.509334 0.461722,-1.807448 0,-0.298114 0.109537,-0.542026 0.243414,-0.542026 0.133879,0 0.408651,-0.553077 0.610605,-1.229063 0.908659,-3.041508 3.518167,-6.667596 5.580496,-7.754483 0.596459,-0.314346 1.084472,-0.686297 1.084472,-0.826561 0,-0.140263 0.357873,-0.402 0.795277,-0.581636 0.437401,-0.179633 1.576093,-0.767389 2.530427,-1.306121 0.954333,-0.538731 1.932093,-0.990102 2.172801,-1.003043 0.240704,-0.01294 1.08659,-0.459915 1.879745,-0.993272 0.793155,-0.533355 1.832507,-1.043189 2.309675,-1.132962 0.477165,-0.08977 1.38812,-0.300969 2.024343,-0.469321 0.636222,-0.168354 2.218756,-0.3092 3.516744,-0.312996 l 2.359977,-0.0069 1.598464,2.533309 c 7.50188,11.889271 10.691876,26.267867 8.355441,37.661296 l -0.503459,2.45508 -1.156769,0.20328 c -1.233445,0.21676 -4.434898,0.26679 -4.91626,0.0768 z M 57.891535,82.869807 c 0.761285,-0.345636 1.511922,-1.00566 2.024343,-1.779979 0.687938,-1.039545 0.814403,-1.529107 0.814403,-3.152635 0,-1.623525 -0.126465,-2.113087 -0.814403,-3.152632 -0.885248,-1.337699 -2.631451,-2.329309 -4.101857,-2.329309 -1.470408,0 -3.216611,0.99161 -4.101856,2.329309 -0.687941,1.039545 -0.814406,1.529107 -0.814406,3.152632 0,1.623528 0.126465,2.11309 0.814406,3.152635 0.885245,1.337699 2.631448,2.32931 4.101856,2.32931 0.477166,0 1.412047,-0.247201 2.077514,-0.549331 z"
       id="path1594" />
    <path
       style="fill:url(#linearGradient1758);fill-opacity:1;fill-rule:evenodd;stroke:#808080;stroke-width:0.289192"
       d="m 129.26874,120.0851 c -0.47716,-0.16597 -1.41923,-0.54254 -2.09349,-0.83681 -0.67425,-0.29428 -1.37561,-0.53505 -1.55857,-0.53505 -0.18296,0 -0.96715,-0.39041 -1.74265,-0.86758 -0.77549,-0.47716 -1.50984,-0.86757 -1.63188,-0.86757 -0.12204,0 -0.84101,-0.6104 -1.59772,-1.35644 -1.29204,-1.27383 -3.08796,-4.40539 -3.08796,-5.38452 0,-0.24235 -0.12602,-0.48401 -0.28006,-0.53704 -0.15403,-0.053 -0.34887,-0.682 -0.43297,-1.39776 -0.22989,-1.95656 -0.45051,-2.94521 -0.87118,-3.90408 -0.20934,-0.47717 -0.724,-1.75989 -1.14368,-2.8505 -0.68155,-1.771108 -1.87799,-3.716952 -3.18169,-5.174578 -0.24895,-0.278347 -0.45087,-0.603687 -0.4487,-0.722979 0.002,-0.11929 -0.74411,-0.884177 -1.65837,-1.699747 -1.64518,-1.467583 -1.65802,-1.491412 -1.24654,-2.313535 0.71181,-1.422138 2.63998,-2.998767 3.66796,-2.999219 0.75271,-2.65e-4 0.96429,-0.151606 1.21402,-0.867976 0.16634,-0.477166 0.50442,-0.867574 0.75127,-0.867574 0.24686,0 0.44883,-0.195205 0.44883,-0.43379 0,-0.287256 0.2873,-0.433787 0.85051,-0.433787 1.35731,0 1.37702,-0.565237 0.0625,-1.791438 -0.66119,-0.616755 -1.20217,-1.308875 -1.20217,-1.538047 0,-0.630939 -1.34427,-1.384448 -2.18362,-1.223997 -0.43703,0.08355 -0.9741,-0.05152 -1.32062,-0.332107 -0.5739,-0.464715 -0.56245,-0.490398 0.65981,-1.48086 1.65902,-1.344398 3.13362,-2.919704 3.13362,-3.347635 0,-0.190807 0.3231,-0.653389 0.71799,-1.027957 0.39489,-0.374571 0.72023,-0.865992 0.72298,-1.092052 0.003,-0.22606 0.21888,-0.647358 0.48029,-0.93622 0.42157,-0.465823 0.44171,-0.909807 0.17812,-3.926861 -0.16345,-1.870911 -0.4393,-3.922202 -0.613,-4.558424 -0.69902,-2.560392 -0.2855,-6.521151 0.74877,-7.171867 0.20217,-0.127196 0.36758,-0.350235 0.36758,-0.495642 0,-0.385881 2.39386,-2.583066 2.82354,-2.59157 0.20098,-0.004 0.59139,-0.122184 0.86758,-0.262683 1.98498,-1.009767 3.61411,-1.448337 6.17261,-1.661711 1.56462,-0.130484 2.28233,-0.09169 2.28233,0.123365 0,0.172538 -0.11158,0.382667 -0.24796,0.466953 -0.13638,0.08429 -0.3385,1.818682 -0.44915,3.854214 -0.11065,2.035532 -0.32894,4.219104 -0.48509,4.852379 -0.15615,0.633275 -0.32581,1.411684 -0.37703,1.729796 -0.0512,0.318111 -0.30032,1.066395 -0.55355,1.66285 -0.25324,0.596458 -0.36948,1.086464 -0.2583,1.088898 0.11117,0.0024 0.072,0.100039 -0.087,0.216895 -0.39476,0.290023 -1.59014,2.014694 -1.59234,2.297396 -0.002,0.254508 -0.37846,0.980358 -1.61853,3.120522 l -0.83782,1.445958 0.0614,5.928434 c 0.0625,6.03653 0.40106,9.447985 1.19603,12.051991 0.15416,0.504957 0.20848,0.989904 0.12073,1.077661 -0.0878,0.08776 0.0543,0.241612 0.31562,0.3419 0.26135,0.10029 0.47518,0.43725 0.47518,0.7488 0,0.635026 0.47275,1.620882 1.05784,2.205971 0.21347,0.213463 0.38812,0.610137 0.38812,0.881494 0,0.271362 0.20258,0.782611 0.45018,1.13611 0.24761,0.353502 0.3683,0.642734 0.26821,0.642734 -0.10009,0 0.0877,0.342889 0.41739,0.761979 0.32965,0.419086 0.59937,0.887426 0.59937,1.040766 0,0.15333 0.21218,0.72592 0.47152,1.27243 0.41689,0.87854 0.44194,1.72112 0.21621,7.2735 -0.203,4.9936 -0.17653,6.51612 0.12924,7.43338 0.21149,0.63444 0.53714,1.25059 0.72365,1.36923 0.18652,0.11864 0.24615,0.2177 0.13251,0.22014 -0.11364,0.002 0.0444,0.59004 0.35121,1.30579 0.30681,0.71575 0.46485,1.28752 0.35121,1.2706 -0.11364,-0.0169 -0.59702,-0.16656 -1.07419,-0.33253 z"
       id="path1665" />
    <path
       style="fill:url(#linearGradient1788);fill-opacity:1;fill-rule:evenodd;stroke:#808080;stroke-width:0.289192"
       d="m 82.100521,65.424156 c -2.646429,-1.648106 -4.429207,-2.44733 -5.891943,-2.64137 -3.417615,-0.453361 -3.244059,-0.669991 2.24831,-2.806295 0.918395,-0.357219 7.787979,-0.330798 8.011464,0.03081 0.0983,0.159057 0.398791,0.289994 0.66775,0.290973 0.26896,0.0011 0.861769,0.196185 1.317353,0.433789 0.455583,0.237601 1.017958,0.432004 1.249722,0.432004 0.231762,0 0.617786,0.196403 0.857832,0.436446 0.240046,0.240046 0.556091,0.362503 0.702323,0.272127 0.146233,-0.09038 0.265878,-0.02651 0.265878,0.141935 0,0.168445 0.162671,0.30642 0.361489,0.306613 0.198821,1.96e-4 0.718992,0.307824 1.155941,0.68362 l 0.794451,0.683265 -2.674197,0.150347 c -1.642583,0.09235 -3.008881,0.329967 -3.541773,0.615963 -0.477168,0.256087 -1.149538,0.466418 -1.494158,0.467397 -0.344619,0.0011 -0.674261,0.144814 -0.732533,0.31963 -0.05827,0.174818 -0.505539,0.485865 -0.993928,0.691216 -0.816917,0.343487 -1.0013,0.302794 -2.303981,-0.508471 z"
       id="path1667" />
    <path
       style="fill:#00ff00;fill-opacity:1;fill-rule:evenodd;stroke:#808080;stroke-width:0.289192"
       d="m 87.914313,123.59846 c -1.054938,-0.61205 -2.214676,-1.83464 -2.77654,-2.92701 -1.2593,-2.44831 -1.876414,-7.28023 -1.565441,-12.25719 l 0.205755,-3.29303 h 2.699168 2.699168 l 2.059988,2.27033 c 4.42336,4.87505 6.20372,7.96397 6.208712,10.77213 0.0039,2.19915 -0.965903,3.47418 -3.570988,4.69482 -2.093928,0.98113 -4.935948,1.33399 -5.959822,0.73995 z"
       id="path1669" />
    <path
       style="fill:url(#linearGradient1766);fill-opacity:1;fill-rule:evenodd;stroke:#808080;stroke-width:0.289192"
       d="m 72.25882,122.77488 c -3.05257,-0.72561 -4.770882,-4.32697 -5.201788,-10.90227 -0.103997,-1.58693 -0.09666,-3.62505 0.0163,-4.52916 l 0.205386,-1.64384 h 3.418342 3.418343 l 1.674148,1.80745 c 3.088585,3.3345 5.328756,7.40281 5.328756,9.6774 0,1.95085 -1.802183,3.97661 -4.386474,4.93066 -1.976477,0.72966 -3.335605,0.93013 -4.473011,0.65976 z"
       id="path1671" />
    <path
       style="fill:url(#linearGradient1750);fill-opacity:1;fill-rule:evenodd;stroke:#808080;stroke-width:0.289192"
       d="m 87.470078,122.89881 c -0.544714,-0.40187 -1.341779,-1.25388 -1.771253,-1.89336 -1.434616,-2.13609 -2.229432,-7.66141 -1.843183,-12.81325 l 0.208558,-2.78178 h 2.533634 2.533634 l 1.734473,1.95204 c 4.992148,5.61835 6.313181,8.12963 6.187213,11.76184 -0.0467,1.34654 -2.175523,3.18419 -4.531834,3.91198 -2.587365,0.79916 -3.827462,0.76541 -5.051242,-0.13747 z"
       id="path1673" />
  </g>
</svg>
