<?xml version="1.0" encoding="UTF-8" standalone="no"?>
<!-- Created with Inkscape (http://www.inkscape.org/) -->

<svg
   width="180mm"
   height="200mm"
   viewBox="0 0 180 200"
   version="1.1"
   id="svg3863"
   inkscape:version="1.2.1 (9c6d41e410, 2022-07-14)"
   sodipodi:docname="żaba.svg"
   xmlns:inkscape="http://www.inkscape.org/namespaces/inkscape"
   xmlns:sodipodi="http://sodipodi.sourceforge.net/DTD/sodipodi-0.dtd"
   xmlns="http://www.w3.org/2000/svg"
   xmlns:svg="http://www.w3.org/2000/svg">
  <sodipodi:namedview
     id="namedview3865"
     pagecolor="#ffffff"
     bordercolor="#666666"
     borderopacity="1.0"
     inkscape:showpageshadow="2"
     inkscape:pageopacity="0.0"
     inkscape:pagecheckerboard="0"
     inkscape:deskcolor="#d1d1d1"
     inkscape:document-units="mm"
     showgrid="false"
     inkscape:zoom="0.914906"
     inkscape:cx="213.68315"
     inkscape:cy="562.35285"
     inkscape:window-width="1637"
     inkscape:window-height="1408"
     inkscape:window-x="914"
     inkscape:window-y="0"
     inkscape:window-maximized="0"
     inkscape:current-layer="layer1" />
  <defs
     id="defs3860" />
  <g
     inkscape:label="Warstwa 1"
     inkscape:groupmode="layer"
     id="layer1">
    <path
       style="fill:#00ff00;fill-opacity:1;fill-rule:evenodd;stroke:#000000;stroke-width:0.589835;stroke-opacity:1"
       id="path8598-5"
       sodipodi:type="arc"
       sodipodi:cx="91.673889"
       sodipodi:cy="128.40134"
       sodipodi:rx="44.083817"
       sodipodi:ry="50.879616"
       sodipodi:start="0"
       sodipodi:end="6.245276"
       sodipodi:open="true"
       sodipodi:arc-type="arc"
       d="M 135.75771,128.40134 A 44.083817,50.879616 0 0 1 92.09168,179.27867 44.083817,50.879616 0 0 1 47.597992,129.36568 44.083817,50.879616 0 0 1 90.420668,77.542284 44.083817,50.879616 0 0 1 135.72603,126.47299" />
    <path
       style="fill:#ffe6d5;fill-opacity:1;fill-rule:evenodd;stroke:#000000;stroke-width:0.292297;stroke-opacity:1"
       id="path8598-5-4"
       sodipodi:type="arc"
       sodipodi:cx="91.384651"
       sodipodi:cy="148.0663"
       sodipodi:rx="24.278393"
       sodipodi:ry="22.687706"
       sodipodi:start="0"
       sodipodi:end="6.245276"
       sodipodi:open="true"
       sodipodi:arc-type="arc"
       d="M 115.66304,148.0663 A 24.278393,22.687706 0 0 1 91.614742,170.75299 24.278393,22.687706 0 0 1 67.11062,148.49631 24.278393,22.687706 0 0 1 90.694461,125.38776 24.278393,22.687706 0 0 1 115.6456,147.20643" />
    <path
       style="fill:#00ff00;fill-rule:evenodd;stroke:#000000;stroke-width:0.264583;stroke-opacity:1"
       id="path3919"
       sodipodi:type="arc"
       sodipodi:cx="89.215668"
       sodipodi:cy="65.212753"
       sodipodi:rx="50.753162"
       sodipodi:ry="31.955696"
       sodipodi:start="0"
       sodipodi:end="6.245276"
       sodipodi:arc-type="arc"
       d="M 139.96883,65.212753 A 50.753162,31.955696 0 0 1 89.696665,97.167014 50.753162,31.955696 0 0 1 38.471622,65.818426 50.753162,31.955696 0 0 1 87.772849,33.269972 50.753162,31.955696 0 0 1 139.93237,64.001625"
       sodipodi:open="true" />
    <path
       style="fill:#00ff00;fill-rule:evenodd;stroke:#000000;stroke-width:0.0839287;stroke-opacity:1"
       id="path3919-6"
       sodipodi:type="arc"
       sodipodi:cx="45.113941"
       sodipodi:cy="72.587196"
       sodipodi:rx="11.802655"
       sodipodi:ry="13.827034"
       sodipodi:start="0"
       sodipodi:end="6.245276"
       sodipodi:arc-type="arc"
       d="M 56.916596,72.587196 A 11.802655,13.827034 0 0 1 45.225797,86.413609 11.802655,13.827034 0 0 1 33.313406,72.849267 11.802655,13.827034 0 0 1 44.778414,58.765751 11.802655,13.827034 0 0 1 56.908117,72.063149"
       sodipodi:open="true" />
    <path
       style="fill:#00ff00;fill-rule:evenodd;stroke:#000000;stroke-width:0.0790935;stroke-opacity:1"
       id="path3919-6-4"
       sodipodi:type="arc"
       sodipodi:cx="134.18501"
       sodipodi:cy="71.43042"
       sodipodi:rx="10.937498"
       sodipodi:ry="13.251071"
       sodipodi:start="0"
       sodipodi:end="6.245276"
       sodipodi:arc-type="arc"
       d="m 145.12251,71.43042 a 10.937498,13.251071 0 0 1 -10.83384,13.250476 10.937498,13.251071 0 0 1 -11.03919,-12.999322 10.937498,13.251071 0 0 1 10.6246,-13.496869 10.937498,13.251071 0 0 1 11.24057,12.743496"
       sodipodi:open="true" />
    <path
       style="fill:#00ff00;fill-opacity:1;fill-rule:evenodd;stroke:#999999;stroke-width:0.108743;stroke-opacity:0"
       id="path3919-6-4-1"
       sodipodi:type="arc"
       sodipodi:cx="53.934303"
       sodipodi:cy="69.261482"
       sodipodi:rx="17.140293"
       sodipodi:ry="15.98355"
       sodipodi:start="0"
       sodipodi:end="6.245276"
       sodipodi:arc-type="arc"
       d="M 71.074596,69.261482 A 17.140293,15.98355 0 0 1 54.096745,85.244314 17.140293,15.98355 0 0 1 36.797089,69.564427 17.140293,15.98355 0 0 1 53.447036,53.284392 17.140293,15.98355 0 0 1 71.062282,68.655702"
       sodipodi:open="true" />
    <path
       style="fill:#ff0000;fill-opacity:1;fill-rule:evenodd;stroke:#000000;stroke-width:0.0651915;stroke-opacity:1"
       id="path3919-6-4-1-1"
       sodipodi:type="arc"
       sodipodi:cx="46.704498"
       sodipodi:cy="73.59935"
       sodipodi:rx="10.366074"
       sodipodi:ry="9.4985371"
       sodipodi:start="0"
       sodipodi:end="6.245276"
       sodipodi:arc-type="arc"
       d="M 57.070572,73.59935 A 10.366074,9.4985371 0 0 1 46.802739,83.09746 10.366074,9.4985371 0 0 1 36.340287,73.779381 10.366074,9.4985371 0 0 1 46.40981,64.104652 10.366074,9.4985371 0 0 1 57.063124,73.239353"
       sodipodi:open="true" />
    <path
       style="fill:#ffffff;fill-rule:evenodd;stroke:#000000;stroke-width:0.103696;stroke-opacity:1"
       id="path3919-6-4-5"
       sodipodi:type="arc"
       sodipodi:cx="74.03849"
       sodipodi:cy="39.68774"
       sodipodi:rx="11.798135"
       sodipodi:ry="21.115307"
       sodipodi:start="0"
       sodipodi:end="6.245276"
       sodipodi:arc-type="arc"
       d="M 85.836625,39.68774 A 11.798135,21.115307 0 0 1 74.150303,60.802099 11.798135,21.115307 0 0 1 62.242475,40.08795 11.798135,21.115307 0 0 1 73.703091,18.580967 11.798135,21.115307 0 0 1 85.828148,38.887465"
       sodipodi:open="true" />
    <path
       style="fill:#ffffff;fill-rule:evenodd;stroke:#000000;stroke-width:0.103696;stroke-opacity:1"
       id="path3919-6-4-5-5"
       sodipodi:type="arc"
       sodipodi:cx="102.07937"
       sodipodi:cy="40.129353"
       sodipodi:rx="11.798135"
       sodipodi:ry="21.115307"
       sodipodi:start="0"
       sodipodi:end="6.245276"
       sodipodi:arc-type="arc"
       d="M 113.8775,40.129353 A 11.798135,21.115307 0 0 1 102.19118,61.243711 11.798135,21.115307 0 0 1 90.283353,40.529562 11.798135,21.115307 0 0 1 101.74397,19.02258 11.798135,21.115307 0 0 1 113.86903,39.329078"
       sodipodi:open="true" />
    <path
       style="fill:#000000;fill-rule:evenodd;stroke:#000000;stroke-width:0.25602;stroke-opacity:1"
       id="path8320-0"
       sodipodi:type="arc"
       sodipodi:cx="101.79553"
       sodipodi:cy="38.607151"
       sodipodi:rx="8.3908443"
       sodipodi:ry="11.282764"
       sodipodi:start="0"
       sodipodi:end="6.245276"
       sodipodi:open="true"
       sodipodi:arc-type="arc"
       d="m 110.18638,38.607151 a 8.3908443,11.282764 0 0 1 -8.31133,11.282258 8.3908443,11.282764 0 0 1 -8.468855,-11.06841 8.3908443,11.282764 0 0 1 8.150805,-11.492052 8.3908443,11.282764 0 0 1 8.62335,10.850585" />
    <path
       style="fill:#000000;fill-rule:evenodd;stroke:#000000;stroke-width:0.25602;stroke-opacity:1"
       id="path8320-0-9"
       sodipodi:type="arc"
       sodipodi:cx="74.322311"
       sodipodi:cy="38.462551"
       sodipodi:rx="8.3908443"
       sodipodi:ry="11.282764"
       sodipodi:start="0"
       sodipodi:end="6.245276"
       sodipodi:open="true"
       sodipodi:arc-type="arc"
       d="m 82.713156,38.462551 a 8.3908443,11.282764 0 0 1 -8.311323,11.282258 8.3908443,11.282764 0 0 1 -8.468859,-11.06841 8.3908443,11.282764 0 0 1 8.150801,-11.492052 8.3908443,11.282764 0 0 1 8.623352,10.850585" />
    <path
       style="fill:#00ff00;fill-opacity:1;fill-rule:evenodd;stroke:#999999;stroke-width:0.108743;stroke-opacity:0"
       id="path3919-6-4-1-2"
       sodipodi:type="arc"
       sodipodi:cx="124.06332"
       sodipodi:cy="68.249321"
       sodipodi:rx="17.140293"
       sodipodi:ry="15.98355"
       sodipodi:start="0"
       sodipodi:end="6.245276"
       sodipodi:arc-type="arc"
       d="M 141.20361,68.249321 A 17.140293,15.98355 0 0 1 124.22576,84.232153 17.140293,15.98355 0 0 1 106.9261,68.552265 17.140293,15.98355 0 0 1 123.57605,52.272231 17.140293,15.98355 0 0 1 141.19129,67.643541"
       sodipodi:open="true" />
    <path
       style="fill:#ff0000;fill-opacity:1;fill-rule:evenodd;stroke:#000000;stroke-width:0.0651915;stroke-opacity:1"
       id="path3919-6-4-1-1-8"
       sodipodi:type="arc"
       sodipodi:cx="132.16068"
       sodipodi:cy="70.85202"
       sodipodi:rx="10.366074"
       sodipodi:ry="9.4985371"
       sodipodi:start="0"
       sodipodi:end="6.245276"
       sodipodi:arc-type="arc"
       d="m 142.52675,70.85202 a 10.366074,9.4985371 0 0 1 -10.26783,9.498111 10.366074,9.4985371 0 0 1 -10.46246,-9.31808 10.366074,9.4985371 0 0 1 10.06953,-9.674729 10.366074,9.4985371 0 0 1 10.65331,9.134702"
       sodipodi:open="true" />
    <path
       style="fill:none;fill-rule:evenodd;stroke:#000000;stroke-width:0.264583px;stroke-linecap:butt;stroke-linejoin:miter;stroke-opacity:1"
       d="m 64.200584,20.532618 c 0.289192,-0.385588 0.578384,-0.771179 0.867574,-1.156766 0.0964,0 0.22103,0.06816 0.289192,0 0.136326,-0.136327 -0.136327,-0.442058 0,-0.578385 0.06816,-0.06816 0.202972,0.04311 0.289192,0 0.121933,-0.06096 0.167259,-0.228224 0.289192,-0.289192 0.08622,-0.04311 0.221028,0.06816 0.289192,0 0.06816,-0.06816 -0.06816,-0.221028 0,-0.28919 0.193892,-0.193894 0.38449,0.193892 0.578385,0 0.06816,-0.06816 -0.06816,-0.22103 0,-0.289192 0.05912,-0.05912 0.752911,0.05733 0.867574,0 0.121933,-0.06097 0.167259,-0.228227 0.289192,-0.289192 0.08622,-0.04311 0.192794,0 0.289192,0 0.0964,0 0.192794,0 0.289193,0 0.385587,0 0.771178,0 1.156766,0 1.445958,0 2.891917,0 4.337878,0 0.771178,0 1.542357,0 2.313532,0 0.0964,0 0.192797,0 0.289193,0 0.0964,0 0.22103,-0.06816 0.289192,0 0.06817,0.06816 -0.06816,0.221027 0,0.289192 0.136326,0.136327 0.405942,-0.08622 0.578384,0 0.121934,0.06097 0.167257,0.228224 0.289193,0.289192 0.156882,0.07844 1.077637,-0.07913 1.156766,0 0.06816,0.06816 -0.06816,0.221028 0,0.28919 0.08955,0.08955 1.356413,-0.08955 1.445958,0 0.06816,0.06816 -0.06816,0.22103 0,0.289192 0.06816,0.06817 0.202973,-0.04311 0.289193,0 0.121933,0.06097 0.167259,0.228224 0.289192,0.289192 0.08622,0.04311 0.202972,-0.04311 0.289192,0 0.714708,0.357354 -0.09982,0.289193 0.578384,0.289193"
       id="path8418" />
    <path
       style="fill:none;fill-rule:evenodd;stroke:#000000;stroke-width:0.264583px;stroke-linecap:butt;stroke-linejoin:miter;stroke-opacity:1"
       d="m 91.38461,18.797467 c 1.51878,-0.752311 2.19287,-2.448354 3.47031,-3.470301 0.16831,-0.134655 0.39903,-0.169625 0.57838,-0.289193 0.22686,-0.151241 0.33451,-0.456448 0.57838,-0.578381 0.0862,-0.04311 0.1928,0 0.2892,0 0.24822,0 1.56595,0.0564 1.73515,0 0.12933,-0.04311 0.16725,-0.228227 0.28919,-0.289193 0.0648,-0.03241 1.08804,0 1.15676,0 1.15677,0 2.31354,0 3.47031,0 0.48198,0 0.96397,0 1.44595,0 0.1928,0 0.3856,0 0.57839,0 0.0964,0 0.20297,-0.04311 0.28919,0 0.12193,0.06097 0.16726,0.228225 0.28919,0.289193 0.0862,0.04311 0.1928,0 0.2892,0 0.19279,0.0964 0.39903,0.169624 0.57838,0.289189 0.11343,0.07562 0.16726,0.228227 0.28919,0.289192 0.0862,0.04311 0.20297,-0.04311 0.28919,0 0.12194,0.06097 0.16726,0.228225 0.28919,0.289193 0.0862,0.04311 0.20899,-0.05347 0.2892,0 0.22686,0.151241 0.35152,0.427143 0.57838,0.578384 0.16042,0.106942 0.44206,-0.136326 0.57838,0 0.0682,0.06816 -0.0682,0.221028 0,0.289192 1.12864,1.128639 0.15531,-0.06694 0.86758,0.28919 1.20355,0.601774 -0.30916,-0.01995 0.28919,0.578384 0.30484,0.304835 0.91763,0.219687 1.15677,0.578385 0.10694,0.160414 -0.0862,0.405942 0,0.578384 0.0431,0.08622 0.20297,-0.04311 0.28919,0 0.24387,0.121933 0.33452,0.456449 0.57838,0.578382 0.0862,0.04311 0.24609,-0.08622 0.28919,0 0.0862,0.172442 -0.061,0.395483 0,0.578385 0.0431,0.12933 0.22823,0.167256 0.2892,0.289192 0.0431,0.08622 -0.0682,0.221027 0,0.289192 0.0682,0.06816 0.24608,-0.08622 0.28919,0 0.12933,0.258659 0,0.578382 0,0.867574"
       id="path8420" />
    <path
       style="fill:none;fill-rule:evenodd;stroke:#000000;stroke-width:0.402583px;stroke-linecap:butt;stroke-linejoin:miter;stroke-opacity:1"
       d="M 55.563261,79.331306 C 89.3606,104.80229 123.73567,77.320426 123.73567,77.320426"
       id="path8424" />
    <path
       style="fill:#ffffff;fill-rule:evenodd;stroke:#000000;stroke-width:0.264583;stroke-opacity:1"
       id="path8426"
       sodipodi:type="arc"
       sodipodi:cx="76.925018"
       sodipodi:cy="33.546253"
       sodipodi:rx="3.1811101"
       sodipodi:ry="3.7594938"
       sodipodi:start="0"
       sodipodi:end="6.245276"
       sodipodi:open="true"
       sodipodi:arc-type="arc"
       d="m 80.106128,33.546253 a 3.1811101,3.7594938 0 0 1 -3.150962,3.759325 3.1811101,3.7594938 0 0 1 -3.210686,-3.688069 3.1811101,3.7594938 0 0 1 3.090105,-3.82923 3.1811101,3.7594938 0 0 1 3.269258,3.615489" />
    <path
       style="fill:#ffffff;fill-rule:evenodd;stroke:#000000;stroke-width:0.264583;stroke-opacity:1"
       id="path8426-9"
       sodipodi:type="arc"
       sodipodi:cx="104.10906"
       sodipodi:cy="32.3895"
       sodipodi:rx="3.1811101"
       sodipodi:ry="3.7594938"
       sodipodi:start="0"
       sodipodi:end="6.245276"
       sodipodi:open="true"
       sodipodi:arc-type="arc"
       d="m 107.29017,32.3895 a 3.1811101,3.7594938 0 0 1 -3.15096,3.759325 3.1811101,3.7594938 0 0 1 -3.21069,-3.68807 3.1811101,3.7594938 0 0 1 3.09011,-3.82923 3.1811101,3.7594938 0 0 1 3.26926,3.615489" />
    <path
       style="fill:none;fill-rule:evenodd;stroke:#000000;stroke-width:0.264583px;stroke-linecap:butt;stroke-linejoin:miter;stroke-opacity:1"
       d="m 80.106132,62.176236 c -0.223769,0.2517 0.120018,2.12266 0,2.60273 -0.03306,0.13226 -0.246081,0.15986 -0.289189,0.28919 -0.09145,0.27435 0,0.57839 0,0.86758 0,0.57838 0,1.15676 0,1.73515 0,0.28919 0,0.57838 0,0.86758 0,0.0964 -0.08622,0.24608 0,0.28918 0.172439,0.0862 0.405942,-0.0862 0.578381,0 0.08622,0.0431 -0.06816,0.22103 0,0.2892 0.06816,0.0682 0.192797,0 0.289193,0 0.0964,0 0.192793,0 0.289192,0"
       id="path8540" />
    <path
       style="fill:none;fill-rule:evenodd;stroke:#000000;stroke-width:0.264583px;stroke-linecap:butt;stroke-linejoin:miter;stroke-opacity:1"
       d="m 90.80623,63.043816 c 0.89417,0.67601 0.1007,1.55956 0.28919,2.31353 0.0523,0.20912 0.23692,0.36927 0.28919,0.57839 0.0468,0.18704 0,0.38559 0,0.57838 0,0.1928 0,0.38559 0,0.57838 0,0.86758 0,1.73515 0,2.60273"
       id="path8542" />
    <path
       style="fill:#00ff00;fill-opacity:1;fill-rule:evenodd;stroke:#000000;stroke-width:0.278135;stroke-opacity:1"
       id="path8598"
       sodipodi:type="arc"
       sodipodi:cx="63.911026"
       sodipodi:cy="137.87503"
       sodipodi:rx="12.430729"
       sodipodi:ry="40.121403"
       sodipodi:start="0"
       sodipodi:end="6.245276"
       sodipodi:open="true"
       sodipodi:arc-type="arc"
       d="M 76.341755,137.87503 A 12.430729,40.121403 0 0 1 64.028834,177.99463 12.430729,40.121403 0 0 1 51.48253,138.63547 12.430729,40.121403 0 0 1 63.557643,97.769843 12.430729,40.121403 0 0 1 76.332824,136.35442" />
    <path
       style="fill:#008000;fill-opacity:1;fill-rule:evenodd;stroke:#000000;stroke-width:0.278135;stroke-opacity:1"
       id="path8600"
       sodipodi:type="arc"
       sodipodi:cx="51.624832"
       sodipodi:cy="175.43892"
       sodipodi:rx="7.3717108"
       sodipodi:ry="10.549851"
       sodipodi:start="0"
       sodipodi:end="6.245276"
       sodipodi:open="true"
       sodipodi:arc-type="arc"
       d="m 58.996543,175.43892 a 7.3717108,10.549851 0 0 1 -7.301848,10.54938 7.3717108,10.549851 0 0 1 -7.440249,-10.34942 7.3717108,10.549851 0 0 1 7.160822,-10.74555 7.3717108,10.549851 0 0 1 7.575979,10.14575" />
    <path
       style="fill:#008000;fill-opacity:1;fill-rule:evenodd;stroke:#000000;stroke-width:0.278135;stroke-opacity:1"
       id="path8602"
       sodipodi:type="arc"
       sodipodi:cx="74.462685"
       sodipodi:cy="176.39798"
       sodipodi:rx="7.0826244"
       sodipodi:ry="9.9104662"
       sodipodi:start="0"
       sodipodi:end="6.245276"
       sodipodi:open="true"
       sodipodi:arc-type="arc"
       d="m 81.545309,176.39798 a 7.0826244,9.9104662 0 0 1 -7.015501,9.91002 7.0826244,9.9104662 0 0 1 -7.148476,-9.72218 7.0826244,9.9104662 0 0 1 6.880007,-10.0943 7.0826244,9.9104662 0 0 1 7.278881,9.53085" />
    <path
       style="fill:#008000;fill-opacity:1;fill-rule:evenodd;stroke:#000000;stroke-width:0.278135;stroke-opacity:1"
       id="path8604"
       sodipodi:type="arc"
       sodipodi:cx="63.188301"
       sodipodi:cy="179.43507"
       sodipodi:rx="7.6607971"
       sodipodi:ry="9.1112356"
       sodipodi:start="0"
       sodipodi:end="6.245276"
       sodipodi:open="true"
       sodipodi:arc-type="arc"
       d="m 70.849098,179.43507 a 7.6607971,9.1112356 0 0 1 -7.588194,9.11083 7.6607971,9.1112356 0 0 1 -7.732024,-8.93814 7.6607971,9.1112356 0 0 1 7.441639,-9.28024 7.6607971,9.1112356 0 0 1 7.873075,8.76224" />
    <path
       style="fill:#00ff00;fill-opacity:1;fill-rule:evenodd;stroke:#000000;stroke-width:0.27681;stroke-opacity:1"
       id="path8598-4"
       sodipodi:type="arc"
       sodipodi:cx="121.60483"
       sodipodi:cy="137.2025"
       sodipodi:rx="12.43117"
       sodipodi:ry="39.738605"
       sodipodi:start="0"
       sodipodi:end="6.245276"
       sodipodi:open="true"
       sodipodi:arc-type="arc"
       d="m 134.036,137.2025 a 12.43117,39.738605 0 0 1 -12.31336,39.73682 12.43117,39.738605 0 0 1 -12.54675,-38.98363 12.43117,39.738605 0 0 1 12.07554,-40.475735 12.43117,39.738605 0 0 1 12.77564,38.216445" />
    <path
       style="fill:#008000;fill-opacity:1;fill-rule:evenodd;stroke:#000000;stroke-width:0.27681;stroke-opacity:1"
       id="path8600-8"
       sodipodi:type="arc"
       sodipodi:cx="109.31822"
       sodipodi:cy="174.40799"
       sodipodi:rx="7.3719726"
       sodipodi:ry="10.449196"
       sodipodi:start="0"
       sodipodi:end="6.245276"
       sodipodi:open="true"
       sodipodi:arc-type="arc"
       d="m 116.69019,174.40799 a 7.3719726,10.449196 0 0 1 -7.3021,10.44873 7.3719726,10.449196 0 0 1 -7.44052,-10.25068 7.3719726,10.449196 0 0 1 7.16108,-10.64302 7.3719726,10.449196 0 0 1 7.57625,10.04894" />
    <path
       style="fill:#008000;fill-opacity:1;fill-rule:evenodd;stroke:#000000;stroke-width:0.27681;stroke-opacity:1"
       id="path8602-8"
       sodipodi:type="arc"
       sodipodi:cx="132.15686"
       sodipodi:cy="175.35791"
       sodipodi:rx="7.0828762"
       sodipodi:ry="9.8159113"
       sodipodi:start="0"
       sodipodi:end="6.245276"
       sodipodi:open="true"
       sodipodi:arc-type="arc"
       d="m 139.23974,175.35791 a 7.0828762,9.8159113 0 0 1 -7.01575,9.81547 7.0828762,9.8159113 0 0 1 -7.14873,-9.62942 7.0828762,9.8159113 0 0 1 6.88025,-9.99799 7.0828762,9.8159113 0 0 1 7.27914,9.43991" />
    <path
       style="fill:#008000;fill-opacity:1;fill-rule:evenodd;stroke:#000000;stroke-width:0.27681;stroke-opacity:1"
       id="path8604-0"
       sodipodi:type="arc"
       sodipodi:cx="120.8821"
       sodipodi:cy="178.36601"
       sodipodi:rx="7.6610699"
       sodipodi:ry="9.0243053"
       sodipodi:start="0"
       sodipodi:end="6.245276"
       sodipodi:open="true"
       sodipodi:arc-type="arc"
       d="m 128.54317,178.36601 a 7.6610699,9.0243053 0 0 1 -7.58846,9.0239 7.6610699,9.0243053 0 0 1 -7.7323,-8.85286 7.6610699,9.0243053 0 0 1 7.4419,-9.1917 7.6610699,9.0243053 0 0 1 7.87336,8.67864" />
    <path
       style="fill:none;fill-rule:evenodd;stroke:#000000;stroke-width:0.264583px;stroke-linecap:butt;stroke-linejoin:miter;stroke-opacity:1"
       d="m 47.71665,133.60662 c -13.881208,2.60273 -9.254138,25.44888 -9.254138,25.44888 l -12.724442,1.44596 c 0,0 -15.9055481,2.31354 -10.121712,8.38656 5.783837,6.07303 13.013632,9.83253 23.713729,9.25414 10.700099,-0.57838 4.916262,-0.28919 4.916262,-0.28919"
       id="path8741" />
    <path
       style="fill:none;fill-rule:evenodd;stroke:#000000;stroke-width:0.264583px;stroke-linecap:butt;stroke-linejoin:miter;stroke-opacity:1"
       d="m 136.24545,131.84119 c 13.88121,2.60273 9.25414,25.44888 9.25414,25.44888 l 12.72444,1.44596 c 0,0 15.90555,2.31354 10.12171,8.38656 -5.78383,6.07303 -13.01363,9.83253 -23.71373,9.25414 -10.7001,-0.57838 -4.91626,-0.28919 -4.91626,-0.28919"
       id="path8741-9" />
    <path
       style="fill:#00ff00;fill-opacity:1;fill-rule:evenodd;stroke:#000000;stroke-width:0.289192;stroke-opacity:1"
       d="m 33.112463,177.68798 c -5.848287,-0.735 -11.252922,-3.32461 -15.783208,-7.56247 -1.946886,-1.82121 -2.725068,-2.9487 -2.725068,-3.94826 0,-1.57567 3.267562,-3.5499 7.752664,-4.68409 1.288278,-0.32578 5.439074,-0.94831 9.223992,-1.38341 l 6.881669,-0.79109 -0.144597,-2.15593 c -0.324837,-4.84331 -0.126812,-11.35113 0.408792,-13.4344 0.788699,-3.0677 2.056495,-5.42535 3.808346,-7.08218 1.39196,-1.31646 3.652475,-2.60574 4.568677,-2.60574 0.225983,0 0.472048,0.95601 0.68979,2.67998 0.434112,3.43708 1.732081,8.55003 3.083983,12.14838 0.730687,1.94487 1.237509,4.02021 1.624354,6.65141 0.309258,2.10348 0.877869,5.12537 1.263576,6.7153 0.385707,1.58993 0.664599,2.92747 0.619765,2.97231 -0.04484,0.0448 -0.43338,-0.0523 -0.863431,-0.21577 -2.212062,-0.84102 -4.855829,0.001 -6.746541,2.14912 -1.745837,1.98337 -2.450862,4.02812 -2.606884,7.56062 l -0.129051,2.92182 -3.222177,0.18567 c -3.796737,0.21879 -5.170922,0.19716 -7.704651,-0.12127 z"
       id="path8834" />
    <path
       style="fill:#00ff00;fill-opacity:1;fill-rule:evenodd;stroke:#000000;stroke-width:0.289192;stroke-opacity:1"
       d="m 142.43828,175.99016 -2.736,-0.16154 -0.33819,-2.19356 c -0.41871,-2.71587 -1.16808,-4.4508 -2.61608,-6.0567 -1.33236,-1.47766 -2.97932,-2.2902 -4.65965,-2.29889 -0.67598,-0.003 -1.22906,-0.10693 -1.22906,-0.22987 0,-0.12294 0.31236,-1.45684 0.69413,-2.96422 0.94461,-3.7296 1.81908,-9.20613 2.19236,-13.72998 0.17061,-2.06772 0.58439,-5.04253 0.91951,-6.6107 0.33512,-1.56816 0.81963,-4.38055 1.07668,-6.24975 l 0.46737,-3.39854 1.34093,0.39282 c 4.16102,1.21896 7.05789,5.34768 8.05267,11.47692 0.37823,2.33046 0.37407,7.81713 -0.008,10.86617 -0.16641,1.32719 -0.23585,2.47979 -0.1543,2.56134 0.0816,0.0815 3.24345,0.5103 7.02644,0.95278 9.70023,1.13458 14.26735,2.44988 16.10981,4.63952 1.31535,1.56321 0.89251,2.7174 -1.97991,5.4044 -3.44778,3.22524 -7.08077,5.33968 -11.25076,6.5481 -2.4902,0.72163 -7.11273,1.36776 -9.07582,1.26859 -0.60272,-0.0304 -2.32707,-0.12804 -3.83187,-0.21689 z"
       id="path8905" />
  </g>
</svg>
